<svg id="svg" version="1.1" xmlns="http://www.w3.org/2000/svg" xmlns:xlink="http://www.w3.org/1999/xlink" width="400" height="560.1895734597157" viewBox="0, 0, 400,560.1895734597157"><g id="svgg"><path id="path0" d="M212.322 29.113 C 209.976 30.488,206.270 33.038,204.085 34.781 C 200.427 37.698,200.030 37.816,199.064 36.273 C 198.184 34.870,198.121 34.983,198.676 36.967 C 199.040 38.270,199.607 41.911,199.934 45.058 C 200.312 48.685,201.301 51.862,202.635 53.735 C 204.830 56.818,205.402 59.716,203.816 59.716 C 203.308 59.716,202.176 61.102,201.300 62.796 C 200.425 64.491,199.113 66.313,198.386 66.846 C 197.651 67.384,196.866 70.124,196.620 73.007 C 196.376 75.863,196.088 78.839,195.979 79.621 C 195.552 82.708,197.460 89.403,199.289 91.232 L 201.221 93.164 200.680 90.895 C 200.382 89.647,199.632 86.823,199.012 84.619 C 197.840 80.454,198.469 73.934,200.043 73.934 C 200.541 73.934,200.948 74.360,200.948 74.882 C 200.948 75.403,201.574 75.829,202.340 75.829 C 203.239 75.829,203.521 75.281,203.137 74.278 C 202.726 73.207,202.955 72.872,203.877 73.195 C 204.612 73.453,205.068 74.471,204.889 75.457 C 203.311 84.201,204.280 89.507,208.895 97.393 C 213.347 104.999,216.191 107.867,214.066 102.607 C 213.486 101.173,213.082 98.765,213.167 97.256 C 213.306 94.784,213.162 94.643,211.717 95.834 C 210.269 97.027,210.170 96.924,210.704 94.779 C 211.029 93.471,210.911 91.779,210.441 91.019 C 209.925 90.184,209.949 89.201,210.501 88.536 C 211.090 87.826,211.071 86.528,210.447 84.888 C 209.237 81.705,209.181 75.829,210.361 75.829 C 210.846 75.829,211.427 76.789,211.653 77.962 C 212.012 79.822,212.081 79.767,212.193 77.533 C 212.264 76.124,211.828 73.886,211.224 72.560 C 210.335 70.610,210.405 69.833,211.588 68.487 C 213.018 66.861,217.062 59.352,217.062 58.324 C 217.062 58.038,216.209 58.337,215.166 58.988 C 214.123 59.639,213.270 60.457,213.270 60.806 C 213.270 62.691,208.081 69.123,207.239 68.282 C 206.104 67.146,203.791 68.790,203.791 70.732 C 203.791 71.450,203.152 72.038,202.370 72.038 C 200.109 72.038,200.688 69.853,204.468 64.113 C 206.566 60.927,208.672 58.768,209.681 58.768 C 210.613 58.768,211.374 58.326,211.374 57.785 C 211.374 53.206,224.519 45.498,232.330 45.498 C 233.486 45.498,233.979 45.084,233.584 44.444 C 232.880 43.306,224.050 44.070,222.299 45.421 C 220.559 46.763,215.166 48.265,215.166 47.408 C 215.166 46.949,214.307 46.301,213.256 45.967 C 210.971 45.242,211.676 43.602,214.274 43.602 C 215.286 43.602,216.114 42.962,216.114 42.180 C 216.114 41.285,215.211 40.758,213.680 40.758 C 211.714 40.758,211.357 40.410,211.823 38.942 C 212.140 37.944,211.930 36.836,211.356 36.482 C 210.666 36.055,210.894 35.397,212.029 34.536 C 213.633 33.320,213.594 33.234,211.430 33.206 C 208.321 33.165,211.637 30.409,214.851 30.362 C 218.680 30.306,220.040 29.384,218.527 27.870 C 216.891 26.234,217.416 26.129,212.322 29.113 M183.412 31.719 C 181.207 32.729,180.994 33.032,182.464 33.068 C 183.507 33.094,185.188 32.489,186.200 31.723 C 188.483 29.997,187.179 29.995,183.412 31.719 M170.209 39.703 C 168.897 41.825,172.040 43.182,177.251 42.744 C 179.480 42.557,176.367 40.791,173.776 40.773 C 172.646 40.765,171.551 40.246,171.343 39.620 C 171.057 38.764,170.776 38.785,170.209 39.703 M163.651 43.498 C 161.842 44.691,161.373 45.425,162.230 45.723 C 163.262 46.083,163.220 46.513,162.011 47.966 C 158.725 51.913,156.402 56.810,158.121 56.166 C 158.998 55.837,160.168 54.966,160.720 54.229 C 162.294 52.132,174.408 51.400,174.408 53.403 C 174.408 55.265,183.148 54.758,188.323 52.596 C 192.585 50.815,192.311 50.508,186.462 50.508 C 183.404 50.508,179.667 49.717,176.863 48.477 C 174.337 47.360,171.461 46.445,170.472 46.445 C 169.426 46.445,168.297 45.454,167.773 44.076 C 166.699 41.252,166.996 41.293,163.651 43.498 M140.633 49.691 C 131.750 52.613,118.927 58.580,119.754 59.407 C 120.035 59.687,126.734 56.941,129.990 55.210 C 130.323 55.033,128.937 56.632,126.909 58.764 C 119.030 67.046,129.269 68.191,143.352 60.603 C 145.634 59.373,145.975 59.474,145.950 61.374 C 145.920 63.726,140.736 74.069,139.971 73.304 C 139.622 72.955,139.336 73.440,139.336 74.381 C 139.336 77.258,129.461 75.791,120.975 71.654 C 117.130 69.780,113.489 68.246,112.883 68.246 C 112.048 68.246,112.047 67.731,112.878 66.114 C 113.481 64.941,110.830 67.229,106.987 71.199 C 101.437 76.934,99.546 79.662,97.791 84.470 C 96.577 87.798,94.707 92.654,93.636 95.261 C 92.566 97.867,91.427 101.786,91.105 103.968 C 90.627 107.219,89.814 108.448,86.609 110.762 C 82.631 113.635,81.093 117.156,78.098 130.243 C 77.281 133.813,77.036 134.004,71.221 135.588 C 62.424 137.985,57.199 146.476,54.986 161.972 C 53.949 169.239,50.764 184.623,49.849 186.788 C 49.456 187.717,50.469 189.898,52.574 192.655 C 56.171 197.365,56.509 198.986,54.877 203.670 C 53.521 207.558,51.095 208.908,48.709 207.102 C 42.758 202.597,40.410 206.094,41.237 218.228 C 41.679 224.721,41.531 229.358,40.793 232.098 C 37.305 245.050,39.326 251.178,48.821 256.449 C 55.458 260.134,55.925 262.323,52.212 272.344 C 51.088 275.379,49.738 280.924,49.212 284.666 C 48.687 288.408,48.007 293.281,47.702 295.496 C 46.938 301.040,49.942 305.418,56.982 309.023 C 63.839 312.533,67.546 316.761,66.403 319.769 C 62.452 330.160,64.443 340.994,71.568 347.867 C 73.999 350.213,77.023 354.152,78.287 356.619 C 79.954 359.875,81.297 361.261,83.183 361.674 C 87.753 362.675,88.163 362.938,89.135 365.496 C 89.660 366.877,91.146 368.838,92.438 369.854 C 95.654 372.383,95.372 373.543,90.873 376.303 C 82.489 381.447,70.732 395.852,66.628 406.008 C 59.245 424.278,67.207 461.469,82.410 479.724 C 85.619 483.578,84.550 479.889,81.043 475.007 C 79.218 472.468,77.725 470.081,77.725 469.705 C 77.725 469.328,76.889 467.957,75.868 466.659 C 68.548 457.352,62.666 428.169,65.331 414.379 C 66.474 408.462,68.601 406.681,67.787 412.322 C 66.019 424.569,66.817 435.415,70.256 445.893 C 72.408 452.446,72.556 452.552,77.025 450.713 C 78.310 450.184,78.558 450.381,78.104 451.565 C 77.779 452.412,77.984 453.672,78.559 454.365 C 79.134 455.058,79.334 455.895,79.003 456.226 C 78.672 456.557,79.099 457.095,79.952 457.422 C 81.035 457.838,81.334 458.692,80.942 460.255 C 80.375 462.511,82.315 468.246,83.644 468.246 C 84.038 468.246,84.360 468.712,84.360 469.282 C 84.360 469.851,85.213 471.402,86.256 472.727 C 87.299 474.053,88.152 475.839,88.152 476.697 C 88.152 479.253,93.296 480.708,94.652 478.537 C 96.041 476.313,97.803 476.252,97.581 478.436 C 97.269 481.499,97.622 482.464,99.052 482.464 C 101.181 482.464,100.849 477.152,98.578 474.882 C 96.682 472.986,96.682 472.986,99.598 472.986 C 102.318 472.986,102.492 473.192,102.204 476.066 C 101.902 479.082,102.061 479.215,105.480 478.815 C 106.897 478.649,107.544 473.934,106.151 473.934 C 105.635 473.934,105.213 472.953,105.213 471.754 C 105.213 470.555,104.730 469.090,104.140 468.500 C 102.868 467.228,103.819 464.067,105.213 464.929 C 108.590 467.016,106.067 459.089,102.466 456.298 C 101.059 455.208,101.240 454.497,104.121 449.763 C 105.204 447.984,106.709 446.866,108.139 446.776 C 109.397 446.697,110.960 446.590,111.611 446.539 C 112.263 446.488,112.796 445.806,112.796 445.024 C 112.796 443.414,114.281 443.117,115.166 444.550 C 116.204 446.229,120.126 445.621,120.627 443.702 C 120.905 442.640,122.304 441.642,124.056 441.257 C 127.061 440.597,127.943 439.330,125.876 438.641 C 125.045 438.364,125.188 437.312,126.406 434.746 C 127.324 432.813,127.807 430.389,127.480 429.359 C 126.822 427.285,127.931 426.888,129.632 428.590 C 130.238 429.196,133.134 430.017,136.068 430.415 C 139.001 430.813,142.144 431.811,143.050 432.631 C 143.957 433.452,145.412 434.123,146.283 434.123 C 147.154 434.123,147.867 434.550,147.867 435.071 C 147.867 435.592,147.416 436.019,146.863 436.019 C 146.311 436.019,146.122 436.444,146.443 436.963 C 147.141 438.092,152.543 435.513,154.189 433.267 C 154.799 432.434,155.652 431.738,156.085 431.720 C 160.664 431.525,161.739 427.538,158.021 424.538 C 155.564 422.556,156.427 418.009,159.260 418.009 C 160.341 418.009,161.137 418.646,161.137 419.510 C 161.137 421.839,163.466 420.511,163.836 417.972 C 164.393 414.151,171.214 411.352,172.986 414.218 C 173.308 414.739,175.417 415.166,177.672 415.166 C 179.928 415.166,183.032 415.699,184.571 416.351 C 187.477 417.581,187.750 419.894,184.992 419.920 C 184.026 419.929,183.808 420.205,184.429 420.631 C 186.111 421.782,186.892 424.907,185.685 425.653 C 182.519 427.609,184.597 442.654,188.033 442.654 C 188.885 442.654,189.160 443.444,188.858 445.024 C 188.084 449.072,192.086 446.863,193.688 442.357 C 194.024 441.412,194.703 440.887,195.196 441.192 C 195.689 441.497,196.537 440.991,197.081 440.067 C 197.943 438.604,198.193 438.571,199.035 439.810 C 200.586 442.095,202.025 439.075,201.364 434.924 C 200.847 431.682,200.992 431.421,203.624 430.842 C 206.471 430.217,209.224 424.196,208.733 419.668 C 208.608 418.513,209.221 418.009,210.754 418.009 C 211.964 418.009,214.198 416.742,215.719 415.192 C 217.239 413.643,219.358 412.363,220.427 412.349 C 221.495 412.334,222.775 411.951,223.270 411.497 C 223.765 411.044,227.241 409.758,230.995 408.641 C 234.748 407.524,238.079 406.189,238.396 405.675 C 239.298 404.216,237.519 404.548,230.714 407.109 C 221.424 410.606,217.331 410.331,213.025 405.921 C 209.434 402.244,209.358 399.547,212.863 400.164 C 213.960 400.357,214.756 399.827,214.976 398.755 C 215.197 397.674,214.848 397.146,214.034 397.333 C 211.580 397.897,212.585 393.057,215.408 390.713 C 216.192 390.063,216.612 388.598,216.373 387.347 C 216.132 386.088,216.598 384.485,217.454 383.630 C 219.413 381.670,219.359 380.339,217.299 379.800 C 216.050 379.474,216.168 379.340,217.773 379.257 C 218.945 379.196,219.905 378.729,219.905 378.217 C 219.905 376.423,206.030 374.963,205.320 376.682 C 205.083 377.256,204.855 377.007,204.814 376.130 C 204.742 374.583,207.177 373.287,210.751 372.970 C 211.711 372.885,212.777 372.428,213.120 371.953 C 213.463 371.478,214.597 370.617,215.640 370.039 C 216.682 369.461,217.536 368.394,217.536 367.669 C 217.536 366.944,217.757 366.137,218.029 365.877 C 219.458 364.504,220.791 359.799,220.303 357.854 C 219.597 355.041,221.628 350.794,222.785 352.665 C 223.884 354.444,227.625 349.904,227.060 347.477 C 226.827 346.480,227.034 344.925,227.518 344.021 C 228.223 342.702,227.921 342.256,225.993 341.773 C 224.131 341.305,223.722 340.749,224.181 339.305 C 224.529 338.206,224.335 337.441,223.707 337.441 C 221.618 337.441,225.109 333.898,231.530 329.502 C 243.287 321.453,263.402 302.170,265.961 296.495 C 267.966 292.050,268.773 292.510,269.482 298.500 C 269.789 301.093,270.656 304.412,271.408 305.873 C 272.160 307.335,273.509 313.009,274.407 318.483 C 275.980 328.066,276.151 328.489,279.015 329.867 C 280.652 330.654,281.869 331.872,281.720 332.573 C 281.572 333.275,281.840 334.337,282.317 334.934 C 282.794 335.531,283.476 339.226,283.833 343.145 C 284.436 349.781,284.677 350.384,287.334 351.909 C 290.218 353.564,293.839 352.869,293.839 350.659 C 293.839 350.131,294.895 349.992,296.273 350.338 C 298.124 350.802,299.049 350.460,300.134 348.911 C 301.551 346.889,303.688 346.707,307.346 348.297 C 308.258 348.694,309.604 348.788,310.337 348.507 C 311.070 348.225,312.416 348.819,313.328 349.827 C 314.240 350.834,316.210 351.659,317.706 351.659 C 319.743 351.659,320.655 352.260,321.336 354.053 C 321.837 355.369,322.893 356.695,323.682 356.998 C 324.472 357.301,325.118 358.130,325.118 358.839 C 325.118 359.556,324.528 359.904,323.793 359.621 C 323.063 359.341,322.144 359.635,321.749 360.273 C 321.216 361.136,321.797 361.280,324.023 360.835 C 326.449 360.350,327.020 360.546,327.043 361.872 C 327.069 363.371,327.155 363.364,328.070 361.791 C 328.619 360.847,328.841 359.482,328.564 358.758 C 327.636 356.340,330.276 358.283,333.110 362.104 C 336.868 367.170,337.410 366.130,333.770 360.839 C 328.616 353.347,317.876 346.805,296.010 337.837 C 291.427 335.958,287.108 333.875,286.412 333.209 C 283.792 330.702,291.358 320.623,299.526 315.736 C 303.938 313.097,302.730 313.228,295.320 316.195 C 285.819 319.998,279.105 313.175,287.678 308.429 C 289.968 307.162,290.654 304.465,289.066 302.980 C 288.164 302.136,288.042 302.467,288.515 304.477 C 288.987 306.483,288.820 306.942,287.763 306.537 C 285.559 305.691,285.129 303.187,286.950 301.805 C 289.660 299.749,290.698 300.244,292.354 304.384 C 295.005 311.009,295.015 307.513,292.371 298.815 C 291.982 297.537,292.125 296.682,292.727 296.682 C 294.107 296.682,296.682 300.523,296.682 302.581 C 296.682 303.507,297.109 304.265,297.630 304.265 C 300.643 304.265,297.985 296.367,293.483 291.943 C 289.923 288.444,289.094 286.635,291.469 287.547 C 293.447 288.305,293.258 286.555,291.240 285.426 C 290.332 284.918,289.907 284.184,290.296 283.796 C 291.274 282.818,295.333 286.759,299.163 292.404 C 302.981 298.032,303.859 295.380,300.252 289.114 C 297.864 284.964,298.419 283.551,301.828 285.105 C 303.464 285.850,304.620 287.687,305.793 291.408 C 307.828 297.866,308.692 297.595,307.109 290.995 C 305.684 285.057,306.333 284.210,309.777 287.510 C 317.484 294.893,323.234 287.776,320.884 273.764 C 319.802 267.317,320.728 265.063,326.021 261.260 C 328.609 259.402,331.339 256.694,332.088 255.244 C 334.287 250.988,337.447 240.650,337.362 237.995 C 337.317 236.616,336.690 237.996,335.927 241.151 C 334.124 248.602,329.272 253.729,330.601 246.779 C 330.899 245.216,330.717 244.493,330.118 244.863 C 329.588 245.190,328.897 246.747,328.582 248.322 C 328.224 250.112,327.426 251.185,326.453 251.185 C 325.373 251.185,325.046 250.615,325.385 249.322 C 325.673 248.218,325.429 247.542,324.784 247.663 C 324.023 247.806,323.789 245.736,324.005 240.758 L 324.313 233.649 321.346 236.845 C 316.378 242.198,309.303 239.990,310.444 233.444 C 310.861 231.046,310.561 230.136,309.042 229.187 C 307.979 228.523,307.109 227.426,307.109 226.749 C 307.109 225.743,307.382 225.741,308.599 226.740 C 312.971 230.327,313.810 231.475,313.280 233.144 C 312.624 235.211,313.886 236.269,316.028 235.447 C 319.045 234.289,317.490 229.192,312.641 224.343 C 311.162 222.865,309.953 221.048,309.953 220.306 C 309.953 219.274,308.449 218.954,303.555 218.943 C 299.601 218.934,297.649 218.616,298.446 218.111 C 299.156 217.662,300.542 217.505,301.527 217.762 C 302.512 218.020,303.318 217.754,303.318 217.172 C 303.318 214.495,313.800 215.974,316.681 219.058 L 319.431 222.001 319.431 218.661 C 319.431 212.582,319.015 212.260,311.985 212.908 C 304.361 213.612,299.709 209.718,302.625 205.076 C 303.000 204.478,302.670 203.746,301.890 203.447 C 300.869 203.055,300.474 203.557,300.474 205.243 C 300.474 206.691,299.932 207.583,299.052 207.583 C 297.102 207.583,297.201 212.172,299.199 214.380 C 300.915 216.276,299.662 216.818,297.820 214.976 C 296.935 214.092,296.682 214.209,296.682 215.506 C 296.682 218.944,295.014 215.963,293.839 210.427 C 291.964 201.593,291.338 202.782,290.684 216.418 C 290.220 226.079,289.456 231.155,287.370 238.422 C 285.418 245.220,284.980 247.947,285.807 248.150 C 286.440 248.306,287.729 250.145,288.673 252.239 C 291.856 259.297,301.662 262.751,308.457 259.207 C 311.149 257.803,312.731 258.423,312.782 260.900 C 312.790 261.291,313.390 261.611,314.117 261.611 C 316.236 261.611,316.957 264.789,315.084 265.877 C 314.186 266.398,312.131 267.904,310.517 269.223 C 298.884 278.734,289.006 279.356,282.847 270.966 C 279.597 266.538,277.725 265.766,277.725 268.852 C 277.725 270.570,268.337 290.285,267.150 291.059 C 266.697 291.355,264.945 293.772,263.258 296.431 C 258.727 303.570,248.876 311.148,245.092 310.406 C 241.847 309.769,237.518 308.348,234.503 306.929 C 233.169 306.302,231.292 306.332,228.815 307.020 C 221.952 308.925,213.612 307.305,208.944 303.160 C 207.867 302.204,206.161 301.412,205.152 301.401 C 202.540 301.371,195.261 297.918,195.261 296.708 C 195.261 296.150,194.088 295.187,192.654 294.568 C 187.504 292.343,183.852 287.986,184.444 284.773 C 184.828 282.689,184.513 281.485,183.328 280.508 C 181.804 279.253,181.730 279.368,182.374 281.991 C 182.938 284.284,182.840 284.605,181.868 283.649 C 181.206 282.998,180.322 282.464,179.905 282.464 C 178.546 282.464,179.107 284.595,180.806 285.884 C 182.247 286.978,182.266 287.147,180.953 287.174 C 179.253 287.208,176.303 284.323,176.303 282.627 C 176.303 282.016,177.104 281.517,178.083 281.517 C 180.605 281.517,182.265 279.326,180.831 277.892 C 179.976 277.038,179.981 276.777,180.853 276.777 C 181.479 276.777,181.991 277.229,181.991 277.781 C 181.991 278.333,182.417 278.521,182.938 278.199 C 184.244 277.392,184.137 273.934,182.806 273.934 C 180.993 273.934,179.209 270.788,179.177 267.536 C 179.160 265.841,178.675 264.455,178.098 264.455 C 177.521 264.455,177.282 263.846,177.567 263.102 C 177.853 262.359,177.472 261.240,176.721 260.617 C 174.981 259.173,174.995 258.044,176.777 256.263 C 178.359 254.681,178.739 248.341,177.251 248.341 C 176.730 248.341,176.294 249.088,176.282 250.000 C 176.265 251.364,175.950 251.254,174.512 249.384 C 173.551 248.133,172.970 246.320,173.222 245.356 C 173.538 244.150,173.170 243.602,172.046 243.602 C 170.808 243.602,170.545 244.137,170.963 245.804 C 171.461 247.788,171.243 247.966,168.753 247.600 C 164.725 247.009,162.574 244.335,163.993 241.683 C 164.738 240.291,164.790 239.293,164.151 238.654 C 162.823 237.326,161.137 238.591,161.137 240.916 C 161.137 242.175,160.679 242.681,159.831 242.356 C 159.113 242.080,158.104 242.275,157.590 242.789 C 156.976 243.403,156.112 243.181,155.071 242.139 C 154.200 241.268,152.746 240.748,151.842 240.985 C 150.503 241.335,150.180 240.740,150.102 237.776 C 150.049 235.774,149.524 233.555,148.933 232.844 C 148.314 232.098,148.113 230.290,148.456 228.572 C 148.892 226.393,148.702 225.584,147.749 225.561 C 146.856 225.539,147.042 225.003,148.341 223.859 C 152.055 220.586,152.683 218.449,150.592 216.204 C 149.296 214.813,148.899 213.511,149.330 212.064 C 149.931 210.046,149.898 210.032,148.586 211.752 C 147.251 213.501,147.199 213.495,146.681 211.515 C 146.389 210.395,145.469 209.479,144.639 209.479 C 143.768 209.479,143.128 208.688,143.128 207.613 C 143.128 206.452,143.603 205.929,144.385 206.229 C 145.379 206.610,145.506 205.662,144.996 201.697 C 144.093 194.688,146.215 188.691,150.991 184.751 C 152.522 183.488,152.628 182.947,151.651 181.382 C 150.676 179.822,150.892 178.630,152.968 174.091 C 154.333 171.106,155.450 168.342,155.450 167.949 C 155.450 167.555,156.721 166.483,158.274 165.565 L 161.098 163.897 162.302 166.840 L 163.507 169.782 165.600 167.829 C 166.751 166.755,168.127 165.877,168.656 165.877 C 170.157 165.877,172.732 160.184,172.182 158.081 C 171.562 155.710,173.061 151.553,175.092 150.010 C 175.943 149.364,176.327 148.523,175.946 148.142 C 175.564 147.760,174.872 148.063,174.408 148.815 C 172.066 152.604,172.948 146.107,175.463 141.039 C 175.933 140.091,175.880 139.187,175.334 138.849 C 174.517 138.344,172.512 141.993,172.512 143.985 C 172.512 144.836,168.243 146.919,166.499 146.919 C 165.847 146.919,164.268 148.181,162.989 149.723 C 160.250 153.025,159.242 153.299,159.242 150.741 C 159.242 148.464,156.730 149.120,155.942 151.602 C 155.066 154.363,150.714 155.675,141.232 156.037 C 136.280 156.226,131.141 156.570,129.813 156.801 C 128.485 157.033,126.779 156.830,126.022 156.350 C 124.895 155.638,124.963 155.477,126.397 155.465 C 127.361 155.457,129.494 154.850,131.136 154.117 C 132.779 153.384,137.884 152.549,142.482 152.263 C 150.130 151.786,151.126 151.491,154.210 148.783 C 156.063 147.156,158.593 145.363,159.832 144.798 C 161.071 144.233,162.085 143.200,162.085 142.502 C 162.085 140.766,161.993 140.793,154.911 144.550 C 146.671 148.921,133.748 148.855,132.051 144.432 C 131.733 143.603,130.472 143.077,129.023 143.170 C 125.049 143.424,124.019 143.192,124.645 142.180 C 124.967 141.659,126.591 141.196,128.255 141.151 L 131.280 141.069 128.593 140.263 C 127.115 139.820,125.306 139.688,124.572 139.969 C 123.839 140.251,122.981 139.809,122.665 138.987 C 122.170 137.696,120.489 137.566,110.335 138.031 C 98.741 138.562,96.737 138.099,100.488 135.756 C 101.908 134.870,102.245 133.958,101.804 132.200 C 101.325 130.290,101.504 129.949,102.738 130.422 C 103.760 130.814,104.265 130.494,104.265 129.456 C 104.265 128.601,103.601 127.648,102.789 127.336 C 101.884 126.989,101.547 126.175,101.917 125.233 C 102.249 124.388,102.858 120.411,103.269 116.395 C 104.420 105.177,107.434 100.088,113.152 99.711 C 118.150 99.382,118.688 100.260,114.929 102.617 L 112.322 104.251 115.877 103.726 C 118.082 103.400,119.431 103.583,119.431 104.207 C 119.431 104.760,119.036 105.213,118.552 105.213 C 118.069 105.213,116.394 108.519,114.831 112.559 C 113.267 116.600,111.142 121.784,110.109 124.081 C 109.075 126.377,108.449 128.830,108.718 129.531 C 109.003 130.273,108.571 130.806,107.684 130.806 C 105.990 130.806,105.573 134.122,107.145 135.093 C 111.870 138.014,120.366 131.543,122.868 123.118 C 125.411 114.555,131.507 107.294,135.021 108.643 C 135.952 109.000,136.493 108.680,136.493 107.774 C 136.493 106.584,136.896 106.526,138.855 107.435 C 141.797 108.800,141.907 109.943,139.100 109.983 C 134.379 110.049,132.874 112.786,137.497 112.897 C 141.463 112.992,141.560 113.056,139.169 114.004 C 137.773 114.557,136.376 115.684,136.064 116.509 C 135.753 117.334,134.830 119.215,134.013 120.688 C 132.186 123.985,132.865 124.832,136.137 123.341 C 139.428 121.842,139.913 122.531,138.716 127.014 C 138.169 129.066,138.084 130.520,138.528 130.245 C 139.990 129.342,139.372 132.038,137.678 133.956 C 136.058 135.790,136.090 135.821,139.033 135.253 C 140.691 134.933,142.220 134.974,142.432 135.345 C 142.644 135.716,142.747 135.592,142.662 135.071 C 142.407 133.518,145.774 130.730,146.311 132.050 C 146.564 132.669,146.803 132.429,146.845 131.517 C 146.886 130.604,147.399 129.858,147.986 129.858 C 148.665 129.858,148.846 130.890,148.483 132.701 C 147.885 135.695,149.227 136.748,149.979 133.874 C 150.402 132.256,149.613 124.588,148.273 117.299 C 147.900 115.271,147.998 113.744,148.501 113.744 C 149.603 113.744,151.649 119.265,151.688 122.342 C 151.712 124.287,151.859 124.400,152.637 123.066 C 153.245 122.026,153.189 119.889,152.475 116.793 C 151.284 111.635,152.034 106.157,153.702 107.825 C 154.390 108.513,155.241 108.266,156.493 107.014 C 159.652 103.855,159.983 105.047,157.772 111.615 C 156.586 115.136,155.154 121.338,154.589 125.398 C 153.449 133.598,151.442 138.389,149.149 138.389 C 147.953 138.389,147.868 138.670,148.745 139.726 C 149.409 140.526,149.496 141.286,148.961 141.616 C 148.469 141.920,147.811 141.505,147.499 140.693 C 147.151 139.784,146.475 139.506,145.741 139.968 C 145.086 140.382,141.777 141.205,138.389 141.798 C 133.918 142.580,132.748 143.064,134.123 143.562 C 135.166 143.939,136.920 144.676,138.020 145.200 C 140.068 146.173,144.076 144.584,144.076 142.797 C 144.076 142.345,145.110 142.234,146.373 142.551 C 149.336 143.295,153.965 139.534,155.578 135.075 C 156.218 133.304,157.092 132.070,157.518 132.334 C 157.945 132.598,158.294 132.362,158.294 131.809 C 158.294 131.257,157.920 130.806,157.462 130.806 C 155.544 130.806,158.600 115.060,161.721 108.859 C 163.125 106.070,168.482 102.370,171.115 102.370 C 173.334 102.370,186.868 95.674,188.358 93.839 C 190.229 91.536,189.740 90.668,187.427 92.184 C 186.246 92.957,183.794 93.862,181.977 94.195 L 178.673 94.800 181.754 93.199 C 186.033 90.976,185.639 90.456,179.564 90.314 C 176.614 90.245,173.312 89.548,172.066 88.731 C 170.841 87.928,168.629 87.052,167.150 86.784 C 164.443 86.293,161.189 82.821,160.047 79.203 C 159.518 77.529,159.417 77.617,159.336 79.825 C 159.213 83.190,164.313 89.100,167.341 89.100 C 168.559 89.100,169.820 89.526,170.142 90.047 C 171.973 93.009,163.823 90.555,159.125 86.730 C 156.213 84.358,155.036 74.751,156.798 67.730 C 157.132 66.399,156.968 65.403,156.416 65.403 C 155.885 65.403,155.450 65.889,155.450 66.483 C 155.450 67.077,154.815 68.037,154.039 68.616 C 150.275 71.422,150.633 85.918,154.598 91.313 L 156.574 93.999 154.510 92.895 C 150.161 90.567,147.641 76.760,150.574 71.327 C 151.412 69.775,151.449 68.678,150.711 67.299 C 149.851 65.691,149.990 65.403,151.625 65.403 C 152.686 65.403,153.555 64.976,153.555 64.455 C 153.555 63.934,152.701 63.507,151.659 63.507 C 149.292 63.507,149.293 62.868,151.662 58.982 C 153.930 55.262,153.964 54.976,152.133 54.976 C 151.351 54.976,150.677 55.723,150.636 56.635 C 150.591 57.626,150.369 57.817,150.083 57.109 C 149.482 55.619,145.972 55.542,145.972 57.019 C 145.972 57.654,145.207 57.422,144.149 56.464 C 141.278 53.866,142.174 49.940,145.840 49.057 C 153.602 47.189,155.100 46.642,152.607 46.586 C 151.303 46.557,145.915 47.954,140.633 49.691 M259.287 50.627 C 260.293 51.363,261.448 51.760,261.853 51.509 C 263.125 50.723,261.590 49.289,259.479 49.289 C 257.506 49.289,257.502 49.321,259.287 50.627 M212.322 51.625 C 212.322 52.389,211.469 53.470,210.427 54.028 C 209.384 54.586,208.531 54.850,208.531 54.613 C 208.531 54.377,208.286 53.546,207.987 52.767 C 207.504 51.508,208.530 50.824,211.611 50.347 C 212.002 50.286,212.322 50.862,212.322 51.625 M140.460 52.185 C 139.087 52.736,138.519 53.511,138.941 54.257 C 139.454 55.166,139.301 55.159,138.299 54.226 C 136.818 52.848,138.476 51.171,141.232 51.259 C 142.014 51.284,141.667 51.701,140.460 52.185 M260.664 52.986 C 255.877 53.624,255.555 54.729,258.264 61.212 C 259.804 64.899,261.611 64.794,261.611 61.019 C 261.611 57.890,263.227 54.976,264.962 54.976 C 265.726 54.976,266.351 54.336,266.351 53.555 C 266.351 52.773,266.031 52.197,265.640 52.275 C 265.249 52.353,263.009 52.673,260.664 52.986 M233.175 58.768 C 232.160 59.424,233.244 59.698,236.967 59.727 C 241.243 59.761,242.849 60.274,245.897 62.581 C 250.114 65.772,251.608 65.563,248.469 62.221 C 245.098 58.633,236.417 56.673,233.175 58.768 M229.858 62.895 C 225.797 64.441,223.538 66.729,224.247 68.577 C 224.577 69.438,224.423 70.142,223.905 70.142 C 221.543 70.142,217.826 82.056,218.252 88.258 C 218.765 95.719,220.853 103.878,220.853 98.420 C 220.853 96.513,223.670 96.589,223.794 98.499 C 223.847 99.325,224.061 102.193,224.269 104.874 C 224.578 108.858,224.344 109.868,222.987 110.403 C 221.731 110.898,222.596 111.574,226.540 113.182 C 233.055 115.838,241.446 114.750,240.970 111.310 C 240.525 108.083,246.112 103.236,249.978 103.496 C 252.484 103.665,253.667 103.173,255.052 101.384 L 256.857 99.052 256.272 102.133 C 255.893 104.129,256.062 105.213,256.754 105.213 C 257.340 105.213,257.820 104.830,257.820 104.363 C 257.820 103.895,259.160 103.575,260.797 103.652 C 263.166 103.763,264.129 103.210,265.507 100.948 C 266.944 98.587,271.090 90.864,271.090 90.546 C 271.090 90.495,270.237 90.454,269.194 90.454 C 267.852 90.454,267.299 91.086,267.299 92.620 C 267.299 94.107,266.704 94.831,265.403 94.929 C 264.360 95.007,263.021 95.114,262.428 95.166 C 260.434 95.341,260.626 90.278,262.634 89.753 C 264.124 89.363,264.445 88.444,264.400 84.686 L 264.346 80.095 261.850 85.308 C 260.478 88.175,259.318 90.948,259.273 91.469 C 259.228 91.991,258.828 92.998,258.384 93.708 C 257.875 94.522,258.059 95.304,258.883 95.826 C 259.916 96.480,259.843 96.656,258.531 96.668 C 257.618 96.676,256.872 96.176,256.872 95.557 C 256.872 94.938,255.699 95.534,254.265 96.881 C 252.530 98.511,251.183 99.080,250.237 98.584 C 249.455 98.174,247.195 97.046,245.214 96.076 C 242.708 94.849,241.739 93.827,242.028 92.715 C 242.257 91.837,241.852 90.890,241.127 90.612 C 239.409 89.953,239.444 85.175,241.199 80.977 C 241.962 79.150,242.175 77.909,241.672 78.220 C 241.170 78.531,240.758 78.151,240.758 77.377 C 240.758 75.315,235.275 72.810,233.197 73.922 C 232.280 74.413,231.326 74.612,231.079 74.365 C 229.323 72.609,225.461 79.008,225.754 83.187 C 225.995 86.634,225.746 87.655,224.663 87.665 C 223.596 87.675,223.331 88.661,223.556 91.784 L 223.853 95.891 221.642 93.680 C 219.229 91.267,218.399 82.120,220.470 80.771 C 221.042 80.399,221.795 78.924,222.146 77.494 C 222.906 74.385,227.211 72.310,234.731 71.426 C 237.525 71.098,239.810 70.476,239.810 70.045 C 239.810 68.976,236.407 67.227,235.700 67.933 C 235.388 68.245,233.532 68.677,231.575 68.893 C 229.619 69.109,227.692 69.798,227.294 70.425 C 226.734 71.305,226.566 71.299,226.555 70.401 C 226.522 67.806,234.202 64.741,238.214 65.748 C 242.513 66.827,244.796 69.813,245.296 75.007 C 245.742 79.649,245.825 79.775,247.019 77.620 C 252.710 67.352,242.089 58.240,229.858 62.895 M196.209 64.099 C 194.648 64.991,192.478 65.266,189.855 64.903 C 184.088 64.106,178.304 65.286,180.415 66.830 C 181.797 67.840,181.456 68.193,177.728 69.617 C 174.296 70.928,173.460 71.696,173.460 73.538 C 173.460 76.151,175.431 76.566,177.590 74.408 C 178.372 73.626,179.788 72.979,180.738 72.971 C 182.046 72.960,182.158 72.762,181.199 72.155 C 180.238 71.545,180.408 71.229,181.910 70.836 C 183.221 70.494,183.886 70.768,183.886 71.653 C 183.886 73.298,183.439 73.336,189.583 71.172 C 192.726 70.065,195.077 68.588,195.616 67.381 C 196.101 66.293,197.073 65.403,197.775 65.403 C 198.478 65.403,199.052 64.763,199.052 63.981 C 199.052 63.199,198.945 62.601,198.815 62.652 C 198.685 62.703,197.512 63.355,196.209 64.099 M281.201 63.191 C 280.110 64.282,280.510 65.403,281.991 65.403 C 282.773 65.403,283.412 64.763,283.412 63.981 C 283.412 62.501,282.291 62.101,281.201 63.191 M113.819 72.025 C 114.641 72.032,117.265 73.330,119.648 74.908 C 122.935 77.085,125.495 77.920,130.245 78.364 C 138.683 79.152,139.902 80.092,137.841 84.223 C 135.686 88.542,132.480 87.839,118.639 80.011 C 112.729 76.668,107.452 73.934,106.912 73.934 C 106.341 73.934,106.446 73.311,107.164 72.446 C 107.901 71.557,109.188 71.170,110.360 71.485 C 111.439 71.775,112.996 72.018,113.819 72.025 M164.504 73.264 C 163.315 75.932,164.631 81.509,166.916 83.492 C 170.094 86.248,180.126 88.606,178.673 86.256 C 178.351 85.735,176.686 85.308,174.972 85.308 C 171.888 85.308,167.729 82.192,169.051 80.870 C 169.400 80.521,168.866 79.351,167.864 78.269 C 166.863 77.188,165.867 75.237,165.653 73.934 C 165.315 71.881,165.161 71.791,164.504 73.264 M215.492 77.258 C 214.860 78.621,214.761 79.844,215.257 80.151 C 215.951 80.580,218.009 76.946,218.009 75.294 C 218.009 74.004,216.430 75.236,215.492 77.258 M254.263 82.461 C 252.570 85.517,251.185 88.926,251.185 90.036 C 251.185 92.928,252.728 91.576,253.429 88.069 C 253.824 86.094,254.453 85.268,255.313 85.598 C 256.834 86.182,259.067 79.987,258.014 78.106 C 257.580 77.331,256.247 78.879,254.263 82.461 M115.058 79.989 C 116.790 80.712,121.445 83.449,125.402 86.069 C 129.360 88.690,133.512 91.125,134.628 91.479 L 136.658 92.123 134.628 93.545 C 131.696 95.598,128.636 94.457,123.966 89.567 C 121.733 87.229,119.590 85.314,119.205 85.312 C 118.820 85.310,117.754 84.691,116.835 83.937 C 115.917 83.183,114.100 81.704,112.796 80.651 C 109.997 78.389,110.721 78.177,115.058 79.989 M282.951 80.555 C 281.247 82.438,281.274 82.464,284.884 82.464 C 287.830 82.464,289.264 83.159,292.220 86.019 L 295.894 89.573 294.590 86.328 C 292.268 80.553,285.838 77.364,282.951 80.555 M236.621 87.032 C 236.764 91.973,236.683 92.202,235.640 89.812 C 234.525 87.256,234.724 79.906,235.877 81.059 C 236.200 81.382,236.535 84.069,236.621 87.032 M278.881 88.880 C 275.960 90.744,274.062 93.013,272.105 96.979 C 270.160 100.921,269.865 102.056,271.070 100.966 C 276.387 96.154,291.209 100.957,294.367 108.515 C 295.682 111.662,298.995 113.133,302.940 112.323 C 303.929 112.119,306.445 111.633,308.531 111.242 C 312.108 110.572,311.934 110.498,305.436 109.943 C 297.532 109.268,294.901 107.740,298.975 106.191 C 302.128 104.992,301.910 104.095,297.771 101.242 C 296.024 100.037,293.891 97.773,293.032 96.209 C 292.172 94.645,291.149 93.223,290.758 93.049 C 290.367 92.875,290.047 92.323,290.047 91.821 C 290.047 87.142,284.072 85.568,278.881 88.880 M295.735 90.911 C 295.735 94.447,303.097 98.391,304.739 95.735 C 305.073 95.195,304.261 94.787,302.856 94.787 C 301.499 94.787,299.341 93.740,298.061 92.460 C 296.782 91.181,295.735 90.483,295.735 90.911 M307.684 92.495 C 306.518 95.535,307.058 98.578,308.768 98.591 C 309.680 98.598,311.335 98.848,312.446 99.146 C 313.876 99.530,315.170 98.928,316.881 97.082 L 319.298 94.476 316.050 92.736 C 312.062 90.598,308.452 90.494,307.684 92.495 M107.109 96.714 C 105.806 97.716,104.465 98.546,104.130 98.557 C 103.795 98.569,103.293 99.170,103.016 99.893 C 102.669 100.797,103.050 101.066,104.239 100.756 C 105.807 100.346,105.757 100.740,103.704 105.030 C 102.460 107.630,101.049 112.530,100.569 115.919 C 100.089 119.308,99.232 122.950,98.663 124.011 C 98.095 125.073,97.630 126.823,97.630 127.900 C 97.630 128.977,97.231 129.858,96.743 129.858 C 94.405 129.858,95.136 109.569,97.552 107.411 C 99.499 105.673,99.672 105.110,98.643 103.869 C 97.969 103.058,97.684 101.701,98.009 100.854 C 98.454 99.693,98.202 99.467,96.983 99.935 C 95.608 100.463,95.641 100.251,97.210 98.507 C 99.445 96.022,101.230 95.318,105.904 95.076 L 109.479 94.891 107.109 96.714 M216.142 100.474 C 216.143 102.108,217.726 104.905,218.273 104.238 C 218.474 103.992,218.077 102.725,217.391 101.422 C 216.702 100.116,216.142 99.690,216.142 100.474 M182.464 102.108 C 180.188 102.667,178.199 104.178,178.199 105.347 C 178.199 105.815,179.179 105.951,180.376 105.651 C 181.573 105.351,184.452 105.743,186.774 106.523 C 189.529 107.449,192.147 107.698,194.313 107.241 L 197.630 106.540 195.140 104.896 C 192.619 103.232,187.065 101.330,185.314 101.532 C 184.790 101.592,183.507 101.851,182.464 102.108 M274.882 104.237 C 271.927 104.585,271.126 104.949,272.275 105.420 C 274.590 106.371,274.344 107.857,271.801 108.279 C 270.222 108.540,270.968 109.039,274.677 110.199 C 281.523 112.340,284.453 114.641,288.717 121.227 C 292.139 126.511,295.971 129.858,298.602 129.858 C 299.236 129.858,298.104 128.255,296.086 126.297 C 293.514 123.800,292.049 121.297,291.185 117.925 C 289.887 112.853,285.156 106.161,282.869 106.161 C 282.125 106.161,281.517 105.780,281.517 105.315 C 281.517 104.009,279.543 103.688,274.882 104.237 M263.270 106.533 C 260.862 108.361,261.238 109.000,263.974 107.731 C 265.273 107.128,266.339 106.315,266.343 105.924 C 266.354 104.871,265.143 105.111,263.270 106.533 M127.468 109.598 C 126.185 111.489,123.621 116.287,121.769 120.262 C 117.186 130.096,117.066 130.291,115.344 130.630 C 114.117 130.872,114.278 130.083,116.191 126.486 C 117.490 124.043,118.991 120.000,119.527 117.503 C 120.182 114.449,121.582 111.849,123.803 109.561 C 128.269 104.963,130.598 104.987,127.468 109.598 M179.147 110.731 C 181.207 112.006,194.708 112.812,193.483 111.588 C 192.952 111.057,189.190 110.449,185.122 110.237 C 180.335 109.988,178.227 110.162,179.147 110.731 M177.251 114.646 C 174.427 115.201,174.920 115.363,180.569 115.736 C 187.751 116.209,188.853 116.015,186.702 114.655 C 185.149 113.673,182.216 113.670,177.251 114.646 M324.746 114.528 C 324.479 114.959,321.682 116.093,318.529 117.048 C 313.559 118.553,310.916 120.379,313.709 120.379 C 317.318 120.379,330.313 113.840,326.833 113.774 C 325.952 113.758,325.012 114.097,324.746 114.528 M275.609 117.652 C 279.320 118.723,284.360 125.187,284.360 128.875 C 284.360 134.017,289.052 136.892,297.646 137.016 C 303.894 137.106,305.000 136.905,304.115 135.838 C 303.528 135.130,303.264 134.335,303.528 134.071 C 303.792 133.806,304.716 134.670,305.581 135.989 C 306.445 137.309,307.629 138.389,308.211 138.389 C 308.793 138.389,309.819 139.135,310.491 140.047 C 311.647 141.616,311.750 141.610,312.405 139.919 C 313.254 137.729,311.786 135.192,309.401 134.724 C 308.427 134.532,307.193 133.790,306.659 133.074 C 305.544 131.579,300.764 131.171,295.261 132.100 C 290.922 132.833,288.502 131.326,285.882 126.259 C 282.841 120.379,278.725 116.581,275.494 116.673 L 272.512 116.759 275.609 117.652 M317.116 121.895 C 307.700 124.477,307.262 124.702,308.756 126.197 C 309.520 126.960,311.022 126.828,314.312 125.707 C 322.170 123.029,324.372 123.525,330.289 129.302 L 335.545 134.433 335.545 130.822 C 335.545 127.881,334.929 126.669,332.227 124.298 C 330.403 122.696,328.910 120.945,328.910 120.408 C 328.910 118.996,326.646 119.281,317.116 121.895 M274.882 122.216 C 276.185 123.268,277.571 124.138,277.962 124.150 C 278.353 124.161,278.673 124.605,278.673 125.137 C 278.673 125.694,277.670 125.851,276.303 125.508 C 275.000 125.181,273.941 125.066,273.949 125.253 C 274.034 127.081,279.172 138.770,283.056 145.972 C 285.727 150.924,288.660 156.990,289.572 159.451 C 290.909 163.055,291.994 164.300,295.142 165.845 C 300.242 168.347,307.109 174.791,307.109 177.075 C 307.109 178.062,308.175 180.021,309.479 181.427 C 312.216 184.381,312.693 189.991,310.457 192.947 C 308.339 195.747,308.730 197.803,311.611 199.014 C 316.748 201.171,320.765 203.767,322.986 206.364 L 325.244 209.005 324.712 206.486 C 324.418 205.101,323.890 203.214,323.536 202.293 C 323.040 200.999,323.254 200.757,324.480 201.227 C 325.366 201.567,326.066 201.380,326.066 200.802 C 326.066 200.120,326.550 200.169,327.488 200.948 C 328.671 201.930,328.910 201.810,328.910 200.232 C 328.910 199.189,329.581 197.780,330.401 197.099 C 333.439 194.577,337.450 183.899,337.281 178.779 C 337.139 174.462,337.086 174.347,336.792 177.725 C 336.032 186.445,334.702 187.939,332.361 182.701 C 329.504 176.311,329.523 174.411,332.446 174.379 C 334.370 174.358,334.691 174.137,333.649 173.552 C 332.857 173.107,329.649 173.192,326.403 173.745 C 319.399 174.936,313.745 173.016,309.540 168.018 C 306.544 164.458,307.133 161.875,310.290 164.727 C 313.035 167.207,316.266 167.880,317.617 166.253 C 318.891 164.717,328.910 164.384,328.910 165.877 C 328.910 166.398,329.829 166.825,330.953 166.825 C 332.935 166.825,332.945 166.769,331.280 164.929 C 330.336 163.886,328.848 163.033,327.973 163.033 C 325.443 163.033,324.976 161.890,326.943 160.512 C 328.985 159.081,331.754 159.740,331.754 161.657 C 331.754 162.352,332.154 163.169,332.644 163.472 C 333.134 163.774,333.487 163.266,333.428 162.343 C 333.369 161.419,334.505 158.184,335.952 155.153 C 337.400 152.122,338.326 149.385,338.012 149.071 C 337.698 148.756,337.441 148.959,337.441 149.520 C 337.441 151.246,332.460 158.256,331.608 157.730 C 331.167 157.457,330.806 156.417,330.806 155.418 C 330.806 153.889,330.443 153.739,328.517 154.472 C 325.667 155.555,320.562 154.242,317.133 151.545 C 314.919 149.804,314.273 149.707,311.779 150.739 C 310.220 151.385,308.829 151.750,308.687 151.549 C 304.856 146.104,304.605 144.124,307.976 145.928 C 310.702 147.387,310.568 145.463,307.820 143.696 C 306.647 142.942,303.128 141.862,300.000 141.296 C 289.192 139.341,285.047 136.508,280.797 128.170 C 277.873 122.434,276.575 120.794,274.789 120.579 L 272.512 120.304 274.882 122.216 M129.001 130.599 C 128.289 132.310,127.943 133.946,128.232 134.235 C 129.045 135.048,130.964 130.903,130.611 129.097 C 130.393 127.985,129.896 128.448,129.001 130.599 M313.909 130.536 C 312.247 130.853,311.882 131.347,312.430 132.540 C 312.829 133.411,313.331 136.666,313.544 139.775 C 314.091 147.731,317.445 149.974,322.660 145.872 C 325.605 143.556,325.732 137.825,322.912 134.531 C 320.479 131.689,322.425 130.365,326.777 131.902 C 327.950 132.316,328.910 132.288,328.910 131.841 C 328.910 130.120,320.108 129.355,313.909 130.536 M109.156 147.148 C 107.932 148.371,95.743 148.870,95.737 147.696 C 95.734 146.811,99.026 146.254,105.166 146.101 C 109.278 145.998,110.092 146.211,109.156 147.148 M99.023 149.715 C 99.328 150.210,97.967 150.906,95.998 151.261 C 94.028 151.616,91.874 152.338,91.209 152.865 C 90.545 153.393,89.743 153.567,89.428 153.251 C 89.113 152.936,90.083 152.190,91.584 151.593 C 93.085 150.996,94.953 150.153,95.735 149.718 C 97.653 148.650,98.364 148.650,99.023 149.715 M203.791 156.398 L 201.422 157.157 203.984 157.251 C 205.393 157.303,207.526 157.738,208.723 158.217 C 209.921 158.696,211.754 159.366,212.796 159.706 C 215.295 160.522,212.297 163.033,208.824 163.033 C 207.620 163.033,206.635 163.460,206.635 163.981 C 206.635 164.502,207.529 164.929,208.622 164.929 C 211.423 164.929,215.743 167.679,217.190 170.383 C 219.237 174.206,223.730 176.737,229.384 177.251 C 235.119 177.773,235.325 178.220,233.611 186.414 C 233.057 189.063,233.246 189.454,235.212 189.732 C 236.840 189.962,237.522 190.750,237.741 192.654 C 238.210 196.731,239.584 195.711,239.958 191.008 C 240.190 188.094,239.900 186.603,239.038 186.272 C 238.086 185.907,237.894 184.044,238.249 178.620 C 238.603 173.229,238.410 171.331,237.474 170.972 C 236.775 170.704,236.440 169.686,236.710 168.654 C 236.974 167.642,236.693 166.215,236.085 165.482 C 235.240 164.465,235.248 163.984,236.117 163.447 C 237.545 162.564,234.579 160.190,232.046 160.190 C 230.964 160.190,230.332 159.491,230.332 158.294 C 230.332 157.209,229.700 156.398,228.854 156.398 C 228.015 156.398,227.657 156.852,228.025 157.448 C 228.472 158.171,227.974 158.273,226.422 157.775 C 219.056 155.413,208.812 154.790,203.791 156.398 M91.257 160.427 C 91.487 161.078,91.494 163.957,91.272 166.825 C 90.786 173.105,93.294 176.992,98.525 178.061 C 103.189 179.015,103.496 181.083,98.878 180.441 C 90.650 179.296,87.204 175.603,87.204 167.929 C 87.204 162.504,90.096 157.149,91.257 160.427 M101.846 165.400 C 102.197 167.744,102.252 170.040,101.967 170.500 C 101.682 170.961,102.723 172.941,104.279 174.899 C 109.098 180.962,107.383 181.294,99.526 175.819 C 92.479 170.908,91.883 161.137,98.631 161.137 C 100.957 161.137,101.269 161.551,101.846 165.400 M176.522 166.825 C 175.403 167.867,173.509 168.727,172.315 168.735 C 168.949 168.757,166.905 170.358,168.720 171.549 C 169.671 172.174,169.750 172.488,168.957 172.497 C 168.306 172.505,167.773 173.201,167.773 174.044 C 167.773 175.050,168.342 175.416,169.431 175.108 C 170.344 174.850,171.677 174.480,172.393 174.286 C 173.110 174.092,173.892 174.467,174.131 175.118 C 174.435 175.947,173.368 176.303,170.579 176.303 C 166.150 176.303,166.377 177.349,171.617 181.080 C 173.993 182.772,174.522 182.814,177.999 181.587 C 181.517 180.346,183.816 180.467,189.573 182.200 C 190.355 182.435,190.675 182.449,190.284 182.230 C 187.859 180.874,191.106 175.508,195.767 173.169 C 202.771 169.656,210.081 170.100,214.021 174.278 L 216.378 176.777 215.143 174.408 C 211.402 167.227,202.095 167.842,188.465 176.171 C 183.754 179.050,184.328 175.881,189.309 171.507 C 193.722 167.632,192.810 167.168,186.855 170.257 C 182.243 172.650,181.875 172.701,180.199 171.184 C 178.543 169.685,178.319 169.684,176.845 171.158 C 175.976 172.027,175.062 172.535,174.814 172.286 C 174.125 171.597,175.440 168.720,176.444 168.720 C 176.932 168.720,178.246 167.867,179.365 166.825 C 180.882 165.412,181.038 164.929,179.978 164.929 C 179.196 164.929,177.641 165.782,176.522 166.825 M119.828 166.452 C 120.932 166.876,121.327 168.342,121.327 172.023 C 121.327 175.232,121.819 177.427,122.702 178.160 C 123.867 179.127,124.006 178.821,123.615 176.143 C 122.861 170.983,124.304 167.546,127.361 167.220 C 129.290 167.014,129.755 167.241,129.098 168.067 C 127.892 169.583,127.077 179.074,128.098 179.705 C 129.449 180.540,129.062 186.730,127.659 186.730 C 122.254 186.730,115.009 175.532,116.597 169.634 C 117.695 165.556,117.638 165.612,119.828 166.452 M269.546 166.745 C 266.939 167.460,261.294 172.353,259.782 175.208 C 258.713 177.226,258.776 177.376,260.467 176.840 C 271.507 173.336,286.256 179.716,286.256 187.995 C 286.256 191.696,284.840 191.743,283.518 188.086 C 282.222 184.502,273.934 179.051,273.934 181.783 C 273.934 182.190,275.221 183.009,276.794 183.602 C 279.980 184.805,282.464 189.505,282.464 194.331 C 282.464 196.781,283.007 197.480,285.821 198.655 C 289.459 200.176,291.943 199.041,291.943 195.858 C 291.943 195.070,292.370 194.161,292.891 193.839 C 293.412 193.517,293.832 192.532,293.824 191.650 C 293.812 190.267,293.682 190.242,292.876 191.469 C 292.093 192.662,291.853 192.562,291.382 190.846 C 291.073 189.721,290.006 188.588,289.012 188.328 C 287.809 188.013,287.204 187.018,287.204 185.352 C 287.204 182.251,283.680 178.851,277.552 176.039 C 272.282 173.622,272.009 173.032,275.592 171.803 C 278.461 170.818,280.822 170.867,284.242 171.981 C 288.152 173.256,285.497 170.598,280.683 168.419 C 276.045 166.320,272.850 165.839,269.546 166.745 M288.631 174.413 C 289.577 175.459,290.557 176.109,290.809 175.858 C 291.445 175.221,289.081 172.512,287.889 172.512 C 287.350 172.512,287.684 173.368,288.631 174.413 M294.791 174.171 C 294.793 175.083,295.859 177.928,297.160 180.492 C 298.749 183.624,299.531 186.737,299.541 189.971 C 299.566 198.447,302.559 199.953,302.941 191.682 C 303.054 189.219,303.437 186.288,303.791 185.168 C 304.274 183.644,303.620 182.215,301.191 179.481 C 299.407 177.473,297.675 175.083,297.344 174.171 C 297.013 173.258,296.302 172.512,295.764 172.512 C 295.227 172.512,294.789 173.258,294.791 174.171 M329.874 182.793 C 330.665 184.889,331.624 186.917,332.007 187.299 C 332.916 188.208,332.904 192.186,331.991 192.724 C 331.600 192.954,330.427 192.066,329.384 190.751 C 325.998 186.480,322.822 183.729,319.051 181.801 C 314.310 179.376,315.953 178.125,323.223 178.624 C 328.332 178.974,328.465 179.057,329.874 182.793 M217.062 182.859 C 217.062 184.024,217.674 184.834,218.553 184.834 C 219.436 184.834,219.919 184.189,219.738 183.254 C 219.277 180.876,217.062 180.549,217.062 182.859 M223.392 186.623 C 222.784 189.786,222.823 189.805,225.789 187.860 L 228.278 186.227 226.073 185.186 C 224.096 184.253,223.819 184.402,223.392 186.623 M119.412 203.555 C 119.423 204.727,119.866 205.687,120.397 205.687 C 121.609 205.687,120.801 202.168,117.948 195.022 L 115.771 189.570 118.312 190.192 C 119.710 190.534,121.100 191.189,121.403 191.647 C 121.705 192.106,122.665 192.208,123.535 191.874 C 124.876 191.359,125.118 191.950,125.118 195.735 C 125.118 199.317,125.400 200.095,126.540 199.657 C 127.612 199.246,127.988 199.863,128.066 202.162 C 128.354 210.630,130.174 216.377,132.849 217.269 C 134.509 217.822,132.895 219.905,130.806 219.905 C 128.707 219.905,127.505 218.404,128.910 217.536 C 130.316 216.667,129.108 215.149,127.502 215.766 C 126.486 216.155,125.991 215.057,125.495 211.313 L 124.836 206.343 122.867 210.044 L 120.898 213.744 120.299 209.953 C 119.970 207.867,119.625 207.014,119.532 208.057 C 119.246 211.281,116.664 215.275,116.621 212.559 C 116.603 211.386,116.225 210.427,115.781 210.427 C 115.338 210.427,114.210 207.121,113.275 203.081 C 112.340 199.040,110.783 194.152,109.816 192.218 C 105.776 184.139,108.095 184.590,113.725 192.978 C 116.842 197.622,119.401 202.382,119.412 203.555 M318.543 190.553 C 320.256 191.470,324.837 199.052,323.678 199.052 C 323.386 199.052,321.521 198.223,319.533 197.209 C 317.515 196.179,315.021 195.600,313.884 195.897 C 311.318 196.568,311.325 195.892,313.922 192.379 C 316.287 189.181,316.110 189.251,318.543 190.553 M305.763 201.773 C 305.472 202.244,305.869 203.156,306.646 203.800 C 307.793 204.753,308.057 204.694,308.057 203.490 C 308.057 201.720,306.511 200.563,305.763 201.773 M236.256 209.242 C 235.083 210.415,233.483 211.374,232.701 211.374 C 231.919 211.374,231.283 211.908,231.287 212.559 C 231.295 213.890,235.524 216.114,238.048 216.114 C 238.956 216.114,239.990 216.586,240.347 217.163 C 240.810 217.912,241.199 217.882,241.708 217.058 C 242.707 215.442,241.738 212.322,240.237 212.322 C 239.550 212.322,238.854 211.149,238.689 209.716 L 238.389 207.109 236.256 209.242 M140.183 218.605 C 137.761 221.524,135.291 222.207,136.041 219.750 C 136.413 218.532,137.273 216.896,137.953 216.114 C 138.633 215.332,139.542 213.412,139.974 211.848 C 140.734 209.091,140.767 209.130,141.053 213.103 C 141.217 215.387,140.832 217.823,140.183 218.605 M318.483 210.261 C 318.483 210.692,319.550 212.046,320.853 213.270 C 322.815 215.113,323.223 215.223,323.223 213.909 C 323.223 213.036,322.796 212.322,322.275 212.322 C 321.754 212.322,321.327 211.682,321.327 210.900 C 321.327 210.118,320.687 209.479,319.905 209.479 C 319.123 209.479,318.483 209.831,318.483 210.261 M331.787 211.927 C 331.873 214.140,334.556 223.561,335.949 226.540 L 337.499 229.858 336.890 226.540 C 335.933 221.332,331.679 209.149,331.787 211.927 M243.918 215.640 C 243.918 216.451,244.305 216.985,244.779 216.827 C 245.252 216.669,245.640 216.135,245.640 215.640 C 245.640 215.145,245.252 214.610,244.779 214.452 C 244.305 214.294,243.918 214.829,243.918 215.640 M123.736 216.177 C 124.608 217.588,123.597 218.356,121.782 217.659 C 120.944 217.338,120.524 216.645,120.849 216.120 C 121.617 214.877,122.949 214.903,123.736 216.177 M69.123 222.491 C 68.020 225.144,66.412 227.567,65.550 227.876 C 64.687 228.185,63.448 228.686,62.796 228.990 C 60.753 229.942,61.498 226.770,63.744 224.950 C 64.917 224.000,66.716 221.631,67.742 219.685 C 70.425 214.596,71.498 216.775,69.123 222.491 M221.676 218.747 C 214.286 226.391,217.392 240.643,226.224 239.612 C 229.607 239.217,234.077 241.845,233.412 243.839 C 233.282 244.230,233.793 244.550,234.548 244.550 C 235.303 244.550,237.072 245.616,238.478 246.919 C 241.811 250.009,246.192 250.141,246.617 247.166 C 246.787 245.972,247.718 244.891,248.746 244.695 C 250.808 244.301,253.949 240.921,253.997 239.044 C 254.014 238.361,254.443 238.059,254.950 238.372 C 256.327 239.223,259.973 236.496,261.964 233.125 C 263.679 230.222,263.679 230.173,261.947 231.100 C 260.637 231.801,259.198 231.576,256.457 230.243 C 254.414 229.249,252.072 228.429,251.253 228.421 C 249.466 228.403,243.602 223.414,243.602 221.913 C 243.602 221.330,243.175 220.853,242.654 220.853 C 242.133 220.853,241.706 221.892,241.706 223.162 C 241.706 225.448,241.631 225.467,234.040 225.106 C 227.637 224.801,226.461 224.967,226.901 226.114 C 227.191 226.870,227.032 227.488,226.547 227.488 C 224.736 227.488,223.388 219.679,225.040 218.755 C 225.865 218.293,226.540 217.510,226.540 217.015 C 226.540 215.321,224.173 216.164,221.676 218.747 M325.846 226.287 C 326.345 231.378,326.895 232.726,328.014 231.607 C 329.142 230.479,327.882 223.512,326.464 223.039 C 325.880 222.845,325.634 224.134,325.846 226.287 M55.258 228.823 C 53.937 230.594,53.480 230.779,53.224 229.648 C 53.043 228.846,53.469 227.825,54.172 227.379 C 56.514 225.895,56.980 226.515,55.258 228.823 M141.583 229.621 C 142.475 232.950,142.265 240.539,141.327 238.863 C 140.105 236.678,139.147 227.488,140.141 227.488 C 140.620 227.488,141.268 228.448,141.583 229.621 M59.113 233.068 C 57.499 234.954,54.976 235.803,54.976 234.460 C 54.976 234.124,55.936 232.921,57.109 231.787 C 59.754 229.230,61.464 230.323,59.113 233.068 M62.143 240.647 C 60.209 244.386,60.190 244.294,63.607 247.487 C 66.981 250.638,65.955 251.216,62.213 248.272 C 59.219 245.918,58.780 240.520,61.350 237.680 C 63.521 235.281,63.997 237.062,62.143 240.647 M331.427 237.752 C 329.706 239.653,329.422 240.758,330.654 240.758 C 331.091 240.758,331.935 239.692,332.529 238.389 C 333.813 235.570,333.543 235.414,331.427 237.752 M69.328 242.258 C 70.066 246.718,69.937 246.925,67.409 245.347 C 64.777 243.703,64.244 242.018,65.648 239.770 C 67.314 237.102,68.621 237.985,69.328 242.258 M80.569 242.180 C 80.569 242.962,80.142 243.602,79.621 243.602 C 79.100 243.602,78.673 242.962,78.673 242.180 C 78.673 241.398,79.100 240.758,79.621 240.758 C 80.142 240.758,80.569 241.398,80.569 242.180 M173.460 249.188 C 173.460 249.653,172.820 250.280,172.038 250.580 C 170.593 251.134,170.097 250.124,171.248 248.973 C 172.154 248.067,173.460 248.194,173.460 249.188 M229.785 250.118 C 230.067 250.575,231.364 250.948,232.667 250.948 C 233.970 250.948,234.806 250.575,234.524 250.118 C 234.242 249.662,232.945 249.289,231.642 249.289 C 230.338 249.289,229.503 249.662,229.785 250.118 M224.274 252.819 C 223.477 253.616,220.438 254.154,215.415 254.386 C 210.720 254.604,209.196 255.793,209.635 258.895 C 209.949 261.114,210.078 261.138,221.801 261.181 C 237.187 261.238,245.219 262.207,249.052 264.469 C 253.659 267.187,256.650 265.815,256.115 261.229 C 255.896 259.354,255.337 257.820,254.873 257.820 C 254.408 257.820,254.028 256.967,254.028 255.924 C 254.028 254.882,253.602 254.028,253.081 254.028 C 252.559 254.028,252.133 254.428,252.133 254.917 C 252.133 255.405,250.688 255.571,248.922 255.284 C 247.156 254.997,244.966 255.180,244.055 255.689 C 242.894 256.339,241.085 256.135,237.994 255.005 C 232.915 253.149,225.177 251.916,224.274 252.819 M326.066 254.446 C 326.066 255.198,325.640 256.076,325.118 256.398 C 324.597 256.720,324.171 256.106,324.171 255.032 C 324.171 253.959,324.597 253.081,325.118 253.081 C 325.640 253.081,326.066 253.695,326.066 254.446 M281.523 256.635 C 281.530 259.690,283.852 263.511,287.395 266.298 C 290.406 268.666,292.361 267.002,289.435 264.562 C 288.426 263.721,286.629 261.007,285.440 258.531 C 283.013 253.473,281.514 252.747,281.523 256.635 M175.198 261.494 C 176.229 262.147,176.202 262.395,175.054 262.836 C 173.589 263.398,172.512 262.812,172.512 261.453 C 172.512 260.450,173.577 260.467,175.198 261.494 M74.430 267.227 C 74.087 268.309,73.088 269.188,72.211 269.180 C 70.936 269.168,70.878 269.000,71.922 268.338 C 72.641 267.883,72.958 267.073,72.627 266.538 C 72.297 266.003,72.562 265.373,73.217 265.140 C 74.894 264.541,75.146 264.973,74.430 267.227 M90.995 265.403 C 90.213 265.908,88.507 266.335,87.204 266.351 C 85.900 266.367,84.254 266.747,83.544 267.197 C 82.835 267.646,81.356 267.779,80.258 267.492 C 78.694 267.083,79.179 266.724,82.496 265.836 C 87.981 264.367,92.993 264.112,90.995 265.403 M218.805 269.848 C 219.572 271.288,219.604 272.112,218.907 272.543 C 215.630 274.568,218.644 276.297,224.900 275.980 C 228.415 275.802,235.342 276.386,240.294 277.277 C 247.503 278.575,249.580 278.664,250.715 277.722 C 253.304 275.573,252.273 274.169,247.630 273.516 C 245.154 273.168,241.848 272.507,240.284 272.046 C 238.720 271.586,233.702 271.016,229.133 270.780 C 224.114 270.521,220.207 269.841,219.263 269.062 C 217.853 267.900,217.808 267.977,218.805 269.848 M317.536 271.922 C 317.536 272.901,318.175 274.233,318.957 274.882 C 320.348 276.036,320.968 279.621,319.777 279.621 C 319.446 279.621,318.186 278.555,316.979 277.251 C 315.771 275.948,313.802 274.898,312.605 274.919 C 310.648 274.952,310.715 275.084,313.270 276.218 C 316.432 277.622,320.379 281.796,320.379 283.735 C 320.379 286.244,319.033 286.229,316.385 283.692 C 314.082 281.485,312.701 281.046,307.077 280.728 C 300.695 280.367,298.698 279.267,302.133 278.003 C 303.045 277.667,304.715 276.418,305.843 275.227 C 306.972 274.037,309.105 272.807,310.583 272.494 C 312.061 272.181,313.910 271.549,314.692 271.089 C 316.888 269.799,317.536 269.989,317.536 271.922 M83.000 272.138 C 83.437 272.844,86.009 272.989,90.876 272.583 C 96.663 272.100,97.738 272.203,96.268 273.103 C 95.174 273.772,88.855 274.397,80.629 274.650 C 73.036 274.883,66.106 275.457,65.228 275.926 C 63.212 277.001,62.559 277.001,62.559 275.922 C 62.559 274.580,68.144 272.830,74.882 272.062 C 78.270 271.675,81.337 271.299,81.698 271.225 C 82.058 271.151,82.644 271.562,83.000 272.138 M88.696 286.442 C 86.398 289.725,86.888 292.008,90.758 296.040 L 94.313 299.742 91.307 298.227 C 84.707 294.899,83.016 289.894,86.923 285.251 C 89.693 281.960,91.150 282.939,88.696 286.442 M72.856 288.389 C 72.572 293.023,73.820 295.883,77.613 299.288 C 81.517 302.794,80.876 303.300,76.195 300.407 C 70.173 296.685,66.994 290.159,69.730 287.136 C 72.118 284.496,73.072 284.878,72.856 288.389 M79.380 286.493 C 79.897 287.145,80.348 289.114,80.384 290.870 C 80.455 294.412,83.784 298.740,85.832 297.954 C 86.531 297.686,88.573 298.936,90.369 300.732 L 93.635 303.998 88.760 302.596 C 86.080 301.826,83.213 300.606,82.390 299.887 C 81.567 299.167,80.409 298.578,79.817 298.578 C 79.224 298.578,78.234 297.618,77.617 296.445 C 76.999 295.273,76.024 294.006,75.451 293.631 C 74.703 293.142,74.744 292.407,75.592 291.037 C 76.244 289.986,76.777 288.266,76.777 287.217 C 76.777 285.060,77.979 284.725,79.380 286.493 M63.770 292.267 C 63.428 294.047,63.004 294.558,62.519 293.774 C 62.116 293.121,62.263 291.821,62.847 290.886 C 64.219 288.689,64.404 288.966,63.770 292.267 M308.689 305.450 C 307.733 306.449,307.131 307.447,307.352 307.668 C 307.572 307.888,308.529 307.210,309.479 306.161 C 311.704 303.702,310.983 303.052,308.689 305.450 M279.883 346.209 C 278.984 347.368,278.455 357.880,279.340 356.995 C 279.587 356.748,280.194 354.700,280.688 352.443 C 281.183 350.187,281.813 347.595,282.090 346.682 C 282.669 344.769,281.237 344.461,279.883 346.209 M165.826 389.987 C 166.632 390.957,166.675 391.874,165.976 393.180 C 165.437 394.187,165.237 395.252,165.531 395.547 C 166.681 396.697,164.790 398.222,163.521 397.168 C 162.216 396.085,162.657 392.417,164.092 392.417 C 164.552 392.417,164.929 391.991,164.929 391.469 C 164.929 390.948,164.264 390.521,163.451 390.521 C 162.638 390.521,162.237 390.095,162.559 389.573 C 163.378 388.249,164.503 388.392,165.826 389.987 M181.729 393.972 C 189.917 396.012,192.656 402.132,188.990 410.190 C 187.439 413.598,181.410 414.575,176.952 412.139 C 175.813 411.517,174.242 410.950,173.460 410.879 C 172.678 410.809,171.053 410.678,169.849 410.589 C 168.548 410.492,167.917 410.011,168.294 409.402 C 168.642 408.838,167.770 407.168,166.354 405.691 L 163.781 403.005 166.251 400.858 C 168.106 399.245,168.720 397.809,168.720 395.090 C 168.720 391.715,168.910 391.469,171.508 391.469 C 173.041 391.469,174.550 391.058,174.860 390.556 C 175.176 390.045,176.234 390.452,177.262 391.480 C 178.272 392.490,180.283 393.612,181.729 393.972 M162.777 401.242 C 162.142 403.147,160.190 403.007,160.190 401.057 C 160.190 399.693,160.627 399.279,161.651 399.673 C 162.455 399.981,162.962 400.688,162.777 401.242 M156.161 428.041 C 155.258 428.944,153.447 427.481,154.120 426.392 C 154.520 425.745,155.050 425.761,155.731 426.442 C 156.289 427.000,156.483 427.720,156.161 428.041 M86.663 436.859 C 87.309 437.903,84.893 440.027,84.036 439.170 C 83.693 438.827,83.412 439.044,83.412 439.652 C 83.412 440.261,83.889 440.758,84.471 440.758 C 85.053 440.758,85.325 441.538,85.076 442.492 C 84.428 444.968,86.906 448.324,87.753 446.118 C 88.267 444.778,88.630 444.902,90.257 446.970 C 91.303 448.300,91.839 449.686,91.447 450.050 C 91.056 450.413,90.545 450.178,90.313 449.526 C 89.576 447.463,88.409 448.240,87.820 451.185 C 87.265 453.959,85.308 455.230,85.308 452.816 C 85.308 452.149,84.455 450.988,83.412 450.237 C 82.370 449.485,81.510 448.218,81.502 447.421 C 81.489 446.138,81.373 446.135,80.492 447.393 C 79.680 448.553,79.582 448.466,79.962 446.919 C 80.601 444.317,81.312 439.077,80.842 440.441 C 80.246 442.166,77.725 442.788,77.725 441.210 C 77.725 439.105,85.663 435.241,86.663 436.859 M313.427 452.370 C 311.541 455.107,308.815 458.820,307.369 460.623 L 304.739 463.899 307.228 462.049 C 308.597 461.031,310.699 458.704,311.899 456.876 C 318.177 447.316,319.406 443.693,313.427 452.370 M282.391 484.731 C 272.419 492.476,267.820 496.481,272.038 493.748 C 274.905 491.890,285.962 483.603,288.562 481.362 C 292.206 478.224,287.373 480.862,282.391 484.731 M179.691 486.888 C 178.678 489.530,180.631 490.283,181.806 487.703 C 182.685 485.775,182.644 485.308,181.598 485.308 C 180.883 485.308,180.025 486.019,179.691 486.888 M91.898 488.480 C 96.593 494.449,121.652 508.048,123.869 505.831 C 124.069 505.631,121.553 504.501,118.277 503.319 C 115.002 502.137,111.588 500.341,110.690 499.328 C 109.792 498.315,108.592 497.774,108.022 498.126 C 107.030 498.739,100.869 494.931,93.839 489.359 C 92.014 487.913,91.141 487.517,91.898 488.480 M174.345 494.476 C 173.816 495.870,173.464 498.109,173.564 499.453 C 173.907 504.071,173.454 505.905,171.119 509.345 L 168.779 512.794 173.541 512.587 C 176.652 512.451,178.571 512.813,179.076 513.629 C 180.594 516.085,183.437 514.437,183.121 511.284 C 182.943 509.511,183.405 507.902,184.306 507.154 C 186.413 505.405,186.129 502.491,183.649 500.408 C 182.080 499.090,181.824 498.412,182.681 497.843 C 184.064 496.925,180.967 493.839,178.662 493.839 C 177.886 493.839,177.251 493.412,177.251 492.891 C 177.251 490.952,175.275 492.030,174.345 494.476 M262.978 498.203 C 251.126 506.246,228.941 512.534,223.122 509.499 C 219.621 507.673,218.543 507.693,216.948 509.615 C 215.798 511.001,215.891 511.099,217.780 510.499 C 220.734 509.562,220.440 510.581,217.299 512.169 C 212.881 514.402,177.042 518.054,169.344 517.056 C 163.832 516.341,152.146 513.408,137.494 509.062 C 132.049 507.447,127.238 506.244,126.803 506.389 C 125.485 506.829,145.713 513.528,157.651 516.605 L 168.856 519.493 186.087 518.577 C 222.128 516.660,257.214 507.083,268.109 496.188 C 269.560 494.737,266.060 496.112,262.978 498.203 " stroke="none" fill="#000000" fill-rule="evenodd"></path></g></svg>