<svg id="svg" version="1.1" xmlns="http://www.w3.org/2000/svg" xmlns:xlink="http://www.w3.org/1999/xlink" width="400" height="225.22522522522522" viewBox="0, 0, 400,225.22522522522522"><g id="svgg"><path id="path0" d="M192.342 11.241 C 193.251 11.379,194.737 11.379,195.646 11.241 C 196.554 11.103,195.811 10.991,193.994 10.991 C 192.177 10.991,191.434 11.103,192.342 11.241 M202.402 11.712 C 202.402 12.408,201.617 12.613,198.949 12.616 C 187.130 12.628,173.508 16.710,160.817 24.041 C 156.073 26.782,155.485 27.524,157.036 28.811 C 157.752 29.406,158.737 29.029,162.341 26.783 C 167.588 23.512,167.234 23.571,168.168 25.826 C 169.053 27.962,169.053 27.962,172.231 26.426 C 175.482 24.856,175.131 24.661,177.203 29.186 C 178.665 32.378,179.218 33.065,180.049 32.727 C 182.922 31.559,184.455 31.322,184.674 32.015 C 186.043 36.361,186.648 39.418,186.223 39.843 C 185.934 40.132,185.274 38.876,184.728 36.997 C 183.594 33.095,183.443 33.054,178.084 35.199 C 173.822 36.905,173.909 36.821,174.773 38.434 C 175.102 39.049,175.201 39.995,174.994 40.536 C 174.694 41.316,172.372 37.619,172.372 36.362 C 172.372 36.283,173.453 35.731,174.775 35.135 C 176.096 34.539,177.177 33.805,177.177 33.504 C 177.177 32.965,174.735 27.027,174.513 27.027 C 174.451 27.027,173.281 27.568,171.914 28.228 C 168.723 29.770,168.662 29.761,167.430 27.597 L 166.391 25.772 161.957 28.765 C 159.518 30.410,157.283 31.544,156.990 31.284 C 156.696 31.024,155.983 31.311,155.405 31.922 C 154.827 32.533,154.649 33.033,155.009 33.033 C 155.369 33.033,156.112 33.588,156.661 34.266 C 157.659 35.497,157.662 35.497,160.061 33.682 C 162.996 31.461,163.540 31.419,164.565 33.333 C 165.560 35.193,165.822 35.193,168.752 33.344 C 170.553 32.207,173.218 32.138,171.682 33.268 C 169.963 34.532,165.160 37.114,165.145 36.781 C 165.134 36.537,164.602 35.709,163.964 34.943 L 162.802 33.549 160.230 35.323 C 157.325 37.327,155.055 39.640,155.993 39.640 C 156.336 39.640,156.758 40.180,156.931 40.841 C 157.260 42.099,158.559 42.527,158.559 41.377 C 158.559 41.012,158.964 40.868,159.459 41.058 C 160.008 41.269,160.360 41.059,160.360 40.522 C 160.360 39.229,161.286 39.446,162.303 40.977 L 163.192 42.315 165.667 40.677 C 167.028 39.776,168.283 39.039,168.456 39.039 C 169.498 39.039,168.275 40.419,164.715 43.258 C 162.485 45.037,159.474 47.802,158.024 49.404 C 156.330 51.275,155.064 52.192,154.485 51.970 C 153.769 51.695,153.728 51.798,154.287 52.471 C 155.212 53.586,151.936 56.456,149.739 56.456 C 148.445 56.456,148.271 56.247,148.570 55.054 C 148.946 53.557,145.822 49.793,145.131 50.911 C 144.941 51.219,145.438 51.820,146.235 52.246 C 148.386 53.398,148.452 54.302,146.567 56.830 C 145.072 58.835,144.978 59.197,145.795 59.794 C 146.581 60.370,146.456 60.529,144.984 60.824 C 143.595 61.102,143.224 61.512,143.148 62.850 C 143.096 63.773,142.758 64.626,142.398 64.746 C 142.037 64.867,141.742 65.496,141.742 66.145 C 141.742 66.794,141.201 68.444,140.541 69.811 C 139.880 71.179,139.339 72.787,139.339 73.386 C 139.339 73.985,139.069 74.474,138.739 74.474 C 137.903 74.474,137.971 73.914,139.332 69.573 C 139.988 67.479,140.529 65.692,140.533 65.601 C 140.537 65.510,139.865 65.179,139.039 64.865 C 138.213 64.551,137.538 64.017,137.538 63.679 C 137.538 62.819,138.254 62.911,139.755 63.962 C 141.001 64.835,141.117 64.703,143.696 59.499 L 146.353 54.137 144.547 52.801 C 142.791 51.503,142.772 51.440,143.893 50.508 C 146.222 48.571,146.785 46.203,145.250 44.794 L 143.888 43.544 144.918 44.793 C 146.580 46.810,145.373 46.957,143.028 45.024 C 140.426 42.880,138.906 42.614,141.371 44.734 L 143.103 46.223 141.640 48.187 C 140.835 49.267,139.558 51.222,138.801 52.532 L 137.425 54.913 138.768 56.000 C 140.389 57.313,139.960 58.056,138.212 56.964 C 136.650 55.989,135.784 57.002,133.886 62.025 C 132.468 65.779,131.052 67.459,131.792 64.510 C 132.031 63.556,132.469 62.625,132.765 62.442 C 133.061 62.260,133.404 61.581,133.528 60.935 C 133.755 59.752,134.165 58.526,135.187 55.972 C 135.516 55.149,136.021 54.760,136.432 55.014 C 136.825 55.257,136.960 55.178,136.746 54.832 C 136.539 54.497,137.465 52.407,138.804 50.186 C 141.116 46.354,141.183 46.108,140.139 45.316 C 138.648 44.186,138.428 44.231,137.708 45.812 C 136.784 47.840,133.898 51.100,133.335 50.752 C 133.065 50.585,132.970 50.927,133.122 51.511 C 133.463 52.812,131.304 57.827,130.671 57.205 C 130.421 56.958,130.284 57.162,130.368 57.658 C 130.663 59.409,129.603 61.085,129.066 59.716 C 128.708 58.801,128.604 58.765,128.571 59.541 C 128.548 60.081,128.125 61.297,127.631 62.244 C 127.138 63.190,126.732 64.421,126.730 64.980 C 126.728 65.538,126.494 66.139,126.209 66.315 C 124.829 67.168,124.186 71.903,125.232 73.500 C 125.796 74.361,126.544 74.888,126.894 74.671 C 127.301 74.420,127.383 74.664,127.122 75.344 C 126.821 76.129,126.947 76.320,127.602 76.069 C 128.090 75.882,128.676 76.028,128.902 76.395 C 129.136 76.774,129.044 76.895,128.689 76.676 C 128.325 76.450,127.954 77.027,127.804 78.052 C 127.661 79.023,127.766 79.680,128.037 79.512 C 128.896 78.982,128.528 83.133,127.609 84.349 C 126.655 85.609,126.312 94.895,127.218 94.895 C 127.951 94.895,127.461 99.355,126.700 99.608 C 125.382 100.048,122.833 102.789,123.486 103.065 C 123.851 103.219,124.022 104.011,123.867 104.826 C 123.691 105.747,123.861 106.306,124.319 106.306 C 124.727 106.306,124.899 106.709,124.705 107.214 C 124.187 108.566,124.964 111.759,125.701 111.303 C 126.090 111.062,126.184 111.295,125.947 111.913 C 125.736 112.463,125.817 112.913,126.126 112.913 C 126.436 112.913,126.533 113.318,126.343 113.814 C 126.153 114.310,126.325 114.715,126.727 114.715 C 127.128 114.715,127.300 115.120,127.110 115.616 C 126.920 116.111,127.055 116.517,127.410 116.517 C 127.766 116.517,127.901 116.922,127.711 117.417 C 127.521 117.913,127.618 118.318,127.928 118.318 C 128.238 118.318,128.335 118.724,128.145 119.219 C 127.955 119.715,128.041 120.120,128.336 120.120 C 128.632 120.120,128.919 120.723,128.974 121.460 C 129.088 122.967,130.626 124.324,132.220 124.324 C 133.394 124.324,134.314 127.586,133.692 129.545 C 133.455 130.291,133.939 131.326,135.137 132.638 C 136.127 133.722,136.937 134.982,136.937 135.438 C 136.937 135.895,137.538 136.689,138.272 137.203 C 139.006 137.717,139.413 138.138,139.177 138.138 C 138.940 138.138,139.334 138.814,140.052 139.640 C 140.770 140.465,141.678 141.141,142.069 141.141 C 143.387 141.141,145.946 143.620,145.946 144.897 C 145.946 145.604,147.076 147.241,148.507 148.607 C 149.915 149.951,151.875 152.254,152.861 153.724 C 153.848 155.195,155.938 157.615,157.508 159.104 C 161.122 162.532,161.083 163.348,157.068 168.335 C 152.994 173.396,152.304 175.771,152.751 183.183 C 153.831 201.099,162.235 210.811,176.657 210.811 C 179.450 210.811,181.016 211.215,183.946 212.694 C 190.767 216.138,202.040 214.774,214.414 209.009 C 218.670 207.026,221.882 205.944,224.293 205.680 C 227.475 205.332,228.160 204.999,230.548 202.645 C 232.024 201.190,233.486 200.000,233.797 200.000 C 234.108 200.000,234.184 199.535,233.966 198.967 C 233.748 198.399,233.752 198.116,233.974 198.338 C 234.598 198.963,236.168 197.096,235.681 196.308 C 235.429 195.901,235.511 195.771,235.876 195.997 C 236.424 196.336,238.408 194.205,239.925 191.649 C 240.288 191.038,240.206 190.941,239.630 191.297 C 239.053 191.654,238.940 191.515,239.218 190.789 C 240.036 188.657,239.121 187.968,236.886 189.034 C 234.684 190.084,234.578 190.257,235.368 191.503 C 235.764 192.128,236.170 192.163,237.124 191.652 C 238.342 191.000,239.660 191.772,238.799 192.633 C 238.601 192.831,238.438 192.668,238.438 192.271 C 238.438 191.717,238.136 191.711,237.135 192.247 C 236.093 192.805,235.701 192.768,235.183 192.065 C 234.826 191.582,234.129 191.042,233.634 190.867 C 232.976 190.634,233.178 190.339,234.384 189.772 C 235.293 189.345,236.036 188.800,236.036 188.559 C 236.036 187.764,234.009 188.270,232.911 189.339 C 232.318 189.917,231.494 190.372,231.081 190.350 C 230.668 190.327,230.938 190.016,231.682 189.657 C 233.272 188.890,233.508 187.873,231.982 188.364 C 231.175 188.623,231.122 188.566,231.752 188.116 C 232.401 187.652,232.423 187.297,231.856 186.408 C 231.195 185.371,231.167 185.369,231.482 186.376 C 231.761 187.264,231.589 187.391,230.552 187.062 C 229.586 186.756,229.391 186.855,229.743 187.473 C 230.123 188.142,230.057 188.149,229.372 187.513 C 228.662 186.852,228.671 186.643,229.434 186.105 C 230.167 185.588,230.127 185.539,229.212 185.836 C 228.431 186.090,228.188 185.957,228.404 185.392 C 228.575 184.948,228.335 184.585,227.871 184.585 C 226.817 184.585,226.820 184.644,227.972 186.872 C 228.492 187.878,228.762 188.855,228.573 189.045 C 228.383 189.234,228.228 189.074,228.228 188.689 C 228.228 188.303,227.832 187.988,227.348 187.988 C 225.507 187.988,225.113 185.761,226.728 184.490 C 227.553 183.842,228.228 183.136,228.228 182.921 C 228.228 182.707,228.793 181.936,229.483 181.206 C 230.778 179.837,232.996 175.888,235.119 171.170 C 236.764 167.516,239.053 164.565,240.243 164.565 C 241.498 164.565,245.143 160.492,244.334 159.992 C 244.002 159.787,243.854 158.975,244.004 158.188 C 244.155 157.401,244.045 156.757,243.761 156.757 C 243.476 156.757,243.243 156.471,243.243 156.121 C 243.243 155.771,243.514 155.652,243.844 155.856 C 244.624 156.338,244.606 155.778,243.793 154.259 C 242.909 152.607,243.606 149.931,244.801 150.389 C 245.350 150.600,245.552 150.485,245.314 150.099 C 244.905 149.438,247.248 146.547,248.192 146.547 C 248.927 146.547,251.991 150.271,251.787 150.917 C 251.696 151.205,251.919 151.257,252.283 151.032 C 252.720 150.762,252.523 150.176,251.697 149.297 C 251.011 148.568,250.450 147.515,250.450 146.958 C 250.450 145.439,253.124 145.679,254.229 147.297 L 255.152 148.649 256.555 147.169 C 257.895 145.756,257.897 145.741,256.603 146.815 C 254.531 148.536,254.101 147.263,256.156 145.493 L 257.958 143.940 256.258 144.366 C 254.752 144.743,254.602 144.656,254.939 143.594 C 255.156 142.910,254.910 141.773,254.365 140.941 C 253.298 139.313,253.905 138.739,256.694 138.739 C 257.443 138.739,258.811 137.879,259.798 136.787 L 261.562 134.835 259.616 136.593 C 256.808 139.130,256.745 138.274,259.485 134.816 C 262.326 131.230,262.329 131.204,260.067 130.034 L 258.272 129.105 259.917 126.068 L 261.562 123.032 260.210 122.103 C 258.116 120.664,258.616 120.024,260.961 121.142 C 263.453 122.330,263.502 122.688,261.606 125.821 C 260.560 127.549,260.329 128.430,260.781 128.974 C 261.700 130.081,262.948 129.897,263.803 128.529 C 264.580 127.285,265.465 126.929,265.465 127.861 C 265.465 128.154,264.515 129.775,263.353 131.464 C 261.426 134.266,261.193 135.564,262.929 133.828 C 263.470 133.286,263.954 133.390,265.001 134.272 C 265.752 134.905,266.166 135.180,265.921 134.884 C 265.676 134.587,265.777 133.982,266.145 133.539 C 266.962 132.554,268.107 132.460,267.510 133.426 C 267.245 133.856,267.345 133.956,267.775 133.691 C 268.156 133.455,268.468 132.962,268.468 132.594 C 268.468 132.227,268.941 131.369,269.520 130.688 C 270.521 129.509,270.521 129.489,269.520 130.264 C 267.834 131.569,268.187 130.051,270.721 125.097 C 272.640 121.345,272.840 120.608,272.072 120.116 C 270.469 119.087,269.899 119.468,268.468 122.523 C 267.695 124.174,266.838 125.526,266.564 125.526 C 265.768 125.526,265.979 124.448,267.267 121.922 C 269.064 118.399,269.350 118.690,260.817 115.363 L 257.669 114.136 256.255 116.920 C 253.892 121.570,254.056 118.985,256.511 112.891 C 257.780 109.740,259.190 105.710,259.644 103.935 C 260.135 102.015,260.652 101.001,260.919 101.433 C 261.408 102.225,260.359 107.237,259.045 110.387 C 258.237 112.326,258.397 113.514,259.468 113.514 C 259.764 113.514,262.854 114.730,266.334 116.216 C 274.135 119.548,273.399 119.638,274.970 115.165 C 276.621 110.465,276.621 109.444,274.972 109.201 C 274.255 109.095,273.547 108.643,273.399 108.195 C 273.195 107.576,273.566 107.476,274.947 107.780 C 277.044 108.240,277.196 108.073,277.755 104.691 C 278.169 102.188,278.160 102.172,276.088 101.783 L 274.005 101.393 274.319 93.789 C 274.492 89.608,274.747 86.059,274.887 85.903 C 275.831 84.850,276.276 88.166,275.939 93.757 C 275.600 99.399,275.672 100.170,276.571 100.515 C 278.256 101.162,278.495 100.566,278.932 94.608 C 279.587 85.678,279.079 83.481,276.358 83.492 C 271.546 83.510,271.680 83.283,271.269 92.090 C 271.066 96.441,270.735 100.705,270.532 101.566 C 270.206 102.948,270.381 103.175,272.018 103.503 C 274.767 104.053,274.386 105.252,271.622 104.752 C 268.653 104.216,268.789 104.603,269.578 98.957 C 270.708 90.875,270.672 90.691,267.960 90.691 L 265.649 90.691 265.276 84.234 C 265.071 80.683,264.472 76.521,263.947 74.985 L 262.991 72.192 258.163 73.674 C 255.508 74.490,253.241 75.063,253.127 74.948 C 252.525 74.347,254.204 73.413,258.108 72.178 C 262.932 70.653,262.815 70.819,261.572 67.296 C 260.929 65.473,260.882 64.838,261.402 65.012 C 263.166 65.600,265.892 75.867,266.983 86.036 C 267.548 91.297,270.580 91.433,270.144 86.177 L 269.870 82.865 272.059 82.515 C 274.075 82.193,274.229 82.026,273.993 80.422 C 273.678 78.272,274.899 78.067,275.429 80.180 C 276.011 82.498,278.907 82.354,278.449 80.030 C 278.270 79.122,277.944 77.073,277.725 75.478 C 277.283 72.259,276.646 71.733,274.278 72.633 C 273.395 72.969,272.673 73.182,272.673 73.106 C 272.673 73.031,272.152 71.149,271.516 68.925 C 270.125 64.060,270.958 62.832,272.447 67.554 C 273.476 70.817,276.276 72.593,276.276 69.983 C 276.276 67.521,273.639 61.183,272.724 61.444 C 272.200 61.593,271.400 61.816,270.946 61.939 C 270.492 62.062,270.007 61.857,269.869 61.483 C 269.730 61.110,270.320 60.628,271.179 60.412 C 273.067 59.938,272.920 59.164,269.858 53.453 C 266.463 47.121,267.092 47.179,259.157 52.464 C 254.593 55.504,252.349 57.346,252.625 57.827 C 252.856 58.229,252.814 58.348,252.531 58.091 C 251.097 56.785,252.170 55.578,258.612 51.251 C 266.892 45.690,266.796 46.920,259.587 38.738 L 257.011 35.815 255.699 37.127 C 254.866 37.960,254.679 38.438,255.186 38.438 C 255.646 38.438,255.839 38.817,255.641 39.332 C 255.453 39.824,255.519 40.162,255.790 40.083 C 256.480 39.882,261.909 45.999,261.449 46.459 C 261.241 46.667,260.641 46.501,260.115 46.091 C 259.277 45.437,259.257 45.470,259.954 46.361 C 260.392 46.921,261.200 47.232,261.756 47.054 C 262.310 46.877,261.735 47.721,260.478 48.929 C 257.303 51.983,252.988 50.855,255.074 47.515 C 255.691 46.526,255.631 46.417,254.610 46.685 C 253.738 46.912,253.527 46.755,253.788 46.073 C 253.982 45.567,254.797 44.989,255.599 44.788 C 256.401 44.586,257.057 44.165,257.057 43.851 C 257.057 43.538,256.652 43.437,256.156 43.627 C 254.957 44.087,255.008 42.975,256.242 41.741 C 257.158 40.825,257.076 40.783,255.098 41.154 C 252.093 41.718,246.342 36.598,248.313 35.113 C 248.954 34.630,249.190 34.234,248.837 34.234 C 247.537 34.234,246.728 35.893,247.407 37.162 C 247.834 37.959,247.848 38.491,247.449 38.738 C 246.878 39.090,246.618 38.685,246.776 37.688 C 246.815 37.440,246.559 37.237,246.206 37.237 C 245.854 37.237,244.584 36.494,243.384 35.586 C 242.184 34.677,241.407 34.272,241.657 34.685 C 241.942 35.154,241.775 35.435,241.212 35.435 C 240.717 35.435,240.144 35.165,239.940 34.835 C 239.736 34.505,239.281 34.234,238.930 34.234 C 238.550 34.234,238.625 34.659,239.116 35.285 C 239.856 36.230,239.837 36.256,238.925 35.542 C 238.344 35.087,238.066 34.338,238.276 33.791 C 238.508 33.185,238.401 32.985,237.981 33.245 C 237.618 33.469,237.125 33.337,236.886 32.950 C 236.624 32.527,236.711 32.407,237.103 32.650 C 237.461 32.871,237.923 32.780,238.129 32.448 C 239.003 31.034,234.373 29.722,232.935 30.976 L 231.609 32.132 232.857 30.030 C 235.887 24.925,237.381 21.525,236.833 20.977 C 234.448 18.592,219.614 14.134,210.661 13.112 C 206.454 12.631,204.805 12.213,204.805 11.627 C 204.805 11.178,204.264 10.811,203.604 10.811 C 202.936 10.811,202.402 11.211,202.402 11.712 M207.068 11.246 C 208.147 11.380,209.769 11.377,210.671 11.240 C 211.574 11.103,210.691 10.994,208.709 10.997 C 206.727 11.000,205.988 11.112,207.068 11.246 M214.114 12.012 C 216.655 12.658,218.835 12.658,216.817 12.012 C 215.991 11.748,214.640 11.536,213.814 11.542 C 212.465 11.552,212.496 11.600,214.114 12.012 M222.222 13.814 C 224.276 14.471,225.855 14.471,224.324 13.814 C 223.664 13.530,222.583 13.306,221.922 13.315 C 220.956 13.329,221.015 13.427,222.222 13.814 M212.310 16.254 C 217.320 16.951,230.809 21.042,232.732 22.448 C 234.248 23.557,233.563 24.350,231.871 23.444 C 230.093 22.493,229.955 22.666,227.371 29.059 L 225.059 34.780 223.491 33.991 C 222.628 33.557,221.179 33.023,220.270 32.806 C 219.362 32.588,218.619 32.141,218.619 31.812 C 218.619 31.474,219.561 31.609,220.794 32.124 C 221.991 32.624,223.303 33.033,223.712 33.033 C 224.388 33.033,229.248 22.372,228.745 21.991 C 226.988 20.657,209.463 16.817,205.133 16.817 L 202.501 16.817 202.302 20.966 C 202.192 23.248,202.305 24.988,202.553 24.834 C 202.800 24.680,203.003 23.624,203.003 22.487 C 203.003 20.109,207.122 19.130,207.277 21.471 C 207.340 22.417,207.375 22.412,207.631 21.419 C 207.971 20.102,212.554 20.414,218.412 22.153 C 223.604 23.694,223.185 24.741,217.900 23.431 C 209.317 21.302,209.009 21.301,209.009 23.396 C 209.009 25.051,209.195 25.229,210.961 25.266 C 214.020 25.329,220.598 27.259,220.906 28.184 C 221.101 28.769,220.873 28.901,220.150 28.623 C 219.580 28.404,218.086 28.061,216.828 27.860 L 214.542 27.495 214.125 29.964 C 213.551 33.365,212.512 33.078,212.733 29.580 C 212.900 26.926,212.808 26.715,211.411 26.559 C 208.321 26.213,207.286 25.796,206.979 24.774 C 206.805 24.197,206.731 24.737,206.814 25.976 L 206.966 28.228 201.738 28.228 L 196.509 28.228 196.603 24.326 C 196.696 20.473,199.078 18.385,200.203 21.171 C 200.369 21.584,200.527 20.773,200.553 19.369 C 200.600 16.844,200.579 16.817,198.498 16.817 C 197.342 16.817,196.396 16.547,196.396 16.216 C 196.396 15.415,206.447 15.438,212.310 16.254 M235.135 18.682 C 238.438 20.320,242.087 22.220,243.243 22.903 L 245.345 24.147 243.844 22.876 C 242.275 21.548,230.536 15.583,229.643 15.660 C 229.360 15.684,231.832 17.044,235.135 18.682 M168.168 18.018 C 167.012 18.651,166.336 19.169,166.667 19.169 C 166.997 19.169,168.213 18.651,169.369 18.018 C 170.526 17.385,171.201 16.867,170.871 16.867 C 170.541 16.867,169.324 17.385,168.168 18.018 M187.759 18.577 C 187.710 19.545,187.472 20.536,187.229 20.779 C 186.986 21.022,186.791 21.514,186.796 21.872 C 186.801 22.260,186.997 22.220,187.280 21.774 C 187.560 21.333,189.345 20.963,191.625 20.873 L 195.495 20.721 195.652 23.724 C 195.937 29.173,196.013 29.287,199.130 28.976 C 200.646 28.825,203.343 28.883,205.124 29.106 L 208.362 29.510 208.006 31.422 C 207.497 34.146,206.607 34.866,206.607 32.553 C 206.607 30.502,206.201 30.353,200.901 30.471 C 197.046 30.557,196.399 30.646,196.468 31.081 C 196.690 32.489,196.174 33.020,194.229 33.385 C 192.682 33.675,191.910 33.554,191.535 32.962 C 191.116 32.301,191.008 32.343,191.000 33.167 C 190.992 34.101,191.550 34.165,196.697 33.827 C 200.657 33.567,202.402 33.654,202.402 34.110 C 202.402 34.529,201.266 34.690,199.261 34.553 C 197.534 34.436,195.709 34.551,195.207 34.809 C 194.705 35.066,193.325 35.452,192.140 35.666 L 189.985 36.054 189.232 31.841 C 188.570 28.133,188.324 27.633,187.183 27.670 C 185.616 27.721,183.074 28.725,184.354 28.787 C 185.004 28.818,185.052 29.002,184.543 29.511 C 183.533 30.521,182.109 28.836,181.065 25.396 C 179.480 20.171,180.600 18.959,182.296 24.065 C 183.035 26.289,183.547 27.016,184.198 26.766 C 187.658 25.438,189.693 25.665,189.954 27.408 C 190.206 29.100,190.212 29.103,190.300 27.551 C 190.420 25.454,189.068 24.326,187.465 25.184 C 184.291 26.882,183.055 26.098,183.278 22.528 C 183.434 20.023,183.267 19.141,182.583 18.856 C 181.951 18.594,182.311 18.247,183.784 17.695 C 187.172 16.427,187.859 16.579,187.759 18.577 M192.943 22.270 C 193.567 22.634,194.022 23.664,194.064 24.805 C 194.104 25.911,194.254 26.261,194.417 25.628 C 194.884 23.823,194.063 21.620,192.932 21.640 C 191.953 21.657,191.954 21.694,192.943 22.270 M237.924 23.273 C 237.496 24.082,237.768 24.690,239.104 25.907 C 240.088 26.804,240.841 27.157,240.841 26.722 C 240.841 26.300,241.276 25.787,241.809 25.583 C 242.551 25.298,242.675 25.458,242.341 26.269 C 241.322 28.747,241.469 29.567,242.584 27.628 C 244.162 24.885,244.205 25.049,241.510 23.534 C 238.696 21.953,238.626 21.948,237.924 23.273 M246.633 25.029 C 247.341 25.633,249.412 27.297,251.236 28.727 C 254.134 31.001,259.537 36.406,263.403 40.900 C 265.767 43.647,268.782 48.373,271.603 53.754 C 273.161 56.727,274.445 58.932,274.456 58.654 C 274.635 53.867,260.446 35.320,250.751 27.669 C 247.193 24.862,244.135 22.901,246.633 25.029 M236.017 27.062 C 235.231 28.530,235.602 29.174,237.922 30.374 C 238.918 30.889,240.934 32.227,242.403 33.349 C 245.178 35.467,246.544 35.532,247.165 33.578 C 247.365 32.948,247.868 32.432,248.284 32.432 C 249.487 32.432,251.834 35.255,251.321 36.084 C 251.015 36.581,251.114 36.668,251.626 36.352 C 252.052 36.089,252.578 36.192,252.821 36.586 C 253.131 37.087,253.673 36.935,254.706 36.058 L 256.156 34.828 253.153 32.141 C 251.502 30.663,249.030 28.642,247.661 27.649 L 245.172 25.843 244.194 27.336 C 243.656 28.157,243.424 28.837,243.680 28.848 C 245.065 28.905,246.525 30.688,245.643 31.246 C 244.869 31.735,244.884 31.815,245.746 31.823 C 246.296 31.828,246.867 31.494,247.015 31.081 C 247.162 30.668,247.477 30.510,247.714 30.729 C 248.209 31.187,246.367 34.234,245.594 34.234 C 245.011 34.234,236.036 28.233,236.036 27.843 C 236.036 27.703,236.620 27.373,237.334 27.109 C 238.435 26.701,238.482 26.572,237.643 26.250 C 237.005 26.005,236.429 26.293,236.017 27.062 M203.428 33.026 C 203.600 33.683,203.951 34.090,204.210 33.931 C 204.468 33.771,204.840 34.062,205.038 34.576 C 205.235 35.091,205.737 35.339,206.152 35.129 C 206.567 34.918,206.382 35.171,205.741 35.691 C 205.100 36.211,204.289 36.632,203.939 36.627 C 203.589 36.622,203.643 36.402,204.060 36.138 C 204.623 35.780,204.431 35.293,203.310 34.240 C 201.704 32.731,201.386 31.832,202.459 31.832 C 202.820 31.832,203.256 32.369,203.428 33.026 M231.465 34.084 C 231.045 35.869,230.030 37.354,230.030 36.184 C 230.030 35.407,231.306 32.432,231.639 32.432 C 231.758 32.432,231.680 33.176,231.465 34.084 M233.463 37.087 C 233.326 37.995,233.213 37.252,233.213 35.435 C 233.213 33.619,233.326 32.875,233.463 33.784 C 233.601 34.692,233.601 36.179,233.463 37.087 M214.130 36.486 C 213.685 40.128,211.963 42.817,210.450 42.236 C 209.992 42.060,209.752 41.697,209.917 41.430 C 210.082 41.162,209.878 40.827,209.463 40.684 C 209.028 40.534,209.598 39.851,210.811 39.067 C 211.967 38.321,212.402 37.880,211.777 38.088 C 210.815 38.408,210.757 38.326,211.400 37.551 C 212.027 36.796,211.989 36.637,211.185 36.637 C 210.649 36.637,210.210 36.404,210.210 36.119 C 210.210 35.834,209.535 35.675,208.709 35.765 C 206.924 35.961,206.736 35.129,208.369 34.255 C 210.155 33.300,211.314 33.560,209.610 34.535 C 208.784 35.007,208.378 35.401,208.709 35.410 C 209.039 35.420,210.120 34.891,211.111 34.234 C 214.151 32.221,214.610 32.563,214.130 36.486 M217.417 33.615 C 217.417 33.935,217.833 34.037,218.341 33.842 C 219.370 33.447,224.625 35.263,224.625 36.013 C 224.625 36.814,221.490 37.713,218.357 37.812 C 216.727 37.863,215.127 38.069,214.801 38.270 C 214.450 38.488,214.373 38.211,214.613 37.587 C 214.834 37.010,215.015 35.750,215.015 34.786 C 215.015 33.433,215.289 33.033,216.216 33.033 C 216.877 33.033,217.417 33.295,217.417 33.615 M146.556 34.869 C 145.405 35.511,144.864 36.030,145.355 36.023 C 145.845 36.015,146.922 35.481,147.748 34.835 C 149.634 33.360,149.244 33.371,146.556 34.869 M149.414 35.941 C 148.002 37.239,146.306 38.435,145.646 38.600 C 144.668 38.844,144.731 38.913,145.984 38.969 C 146.986 39.015,148.138 38.389,149.287 37.175 C 150.257 36.150,151.570 35.113,152.205 34.871 C 152.968 34.581,153.126 34.288,152.670 34.007 C 152.279 33.765,150.873 34.600,149.414 35.941 M151.662 36.625 C 150.587 37.813,151.175 39.640,152.632 39.640 C 153.428 39.640,156.795 36.275,156.397 35.877 C 156.208 35.687,155.283 36.389,154.343 37.436 C 152.988 38.944,152.478 39.186,151.886 38.603 C 151.292 38.016,151.364 37.618,152.239 36.651 C 152.844 35.982,153.204 35.435,153.039 35.435 C 152.874 35.435,152.254 35.971,151.662 36.625 M179.580 36.372 C 179.580 36.887,179.309 37.141,178.979 36.937 C 178.649 36.733,178.378 36.897,178.378 37.302 C 178.378 37.707,178.205 37.864,177.992 37.652 C 177.780 37.440,177.948 36.854,178.366 36.351 C 179.326 35.194,179.580 35.198,179.580 36.372 M199.253 36.486 C 199.407 36.957,198.920 37.237,197.948 37.237 C 197.095 37.237,196.388 36.899,196.378 36.486 C 196.368 36.070,196.087 36.203,195.748 36.787 C 195.388 37.404,194.419 37.838,193.399 37.838 C 192.444 37.838,191.495 38.108,191.291 38.438 C 191.075 38.788,191.674 39.039,192.722 39.039 C 193.713 39.039,194.675 39.284,194.860 39.583 C 195.228 40.179,190.829 39.982,189.817 39.356 C 189.472 39.143,189.189 39.247,189.189 39.587 C 189.189 40.334,192.847 41.410,193.694 40.912 C 194.024 40.718,194.565 40.548,194.895 40.535 C 195.225 40.522,195.465 40.090,195.429 39.574 C 195.381 38.902,195.763 38.714,196.780 38.908 C 197.560 39.057,198.198 39.569,198.198 40.045 C 198.198 40.522,198.465 40.747,198.792 40.545 C 199.147 40.325,199.223 40.601,198.982 41.230 C 198.753 41.827,198.479 41.983,198.348 41.591 C 198.194 41.127,197.664 41.074,196.733 41.428 C 195.867 41.757,195.115 41.721,194.726 41.333 C 194.299 40.905,193.894 41.106,193.428 41.978 C 193.055 42.674,192.457 43.243,192.098 43.243 C 191.645 43.243,191.656 42.988,192.134 42.412 C 192.693 41.739,192.423 41.506,190.706 41.184 C 188.561 40.781,188.014 39.674,189.108 37.949 C 190.281 36.098,198.726 34.881,199.253 36.486 M216.216 36.063 C 215.558 36.509,215.801 36.564,217.117 36.270 C 219.325 35.776,219.805 35.432,218.268 35.445 C 217.635 35.450,216.712 35.728,216.216 36.063 M226.834 38.293 C 226.943 39.199,227.089 40.393,227.158 40.947 C 227.228 41.501,227.497 41.823,227.756 41.662 C 228.016 41.502,228.228 41.657,228.228 42.007 C 228.228 42.356,227.694 42.643,227.042 42.643 C 226.024 42.643,225.911 42.365,226.244 40.691 L 226.633 38.739 225.047 40.541 C 223.780 41.980,223.458 42.125,223.442 41.264 C 223.426 40.359,223.086 40.249,221.321 40.580 C 220.165 40.797,219.219 40.845,219.219 40.687 C 219.219 39.916,224.086 37.299,224.923 37.620 C 225.447 37.821,225.832 37.749,225.779 37.461 C 225.597 36.462,225.828 35.838,226.231 36.241 C 226.453 36.463,226.725 37.387,226.834 38.293 M231.081 37.831 C 233.793 39.485,233.539 39.889,230.781 38.310 C 228.006 36.721,227.894 36.636,228.579 36.639 C 228.881 36.640,230.008 37.177,231.081 37.831 M240.094 38.288 C 240.192 39.682,240.114 39.775,239.592 38.884 C 239.252 38.303,239.140 37.560,239.342 37.232 C 239.885 36.355,239.967 36.470,240.094 38.288 M249.802 39.282 C 250.568 40.204,250.108 43.013,249.089 43.643 C 248.676 43.898,248.589 43.390,248.836 42.159 C 249.041 41.129,248.948 40.125,248.629 39.928 C 247.904 39.480,247.866 38.438,248.575 38.438 C 248.865 38.438,249.417 38.818,249.802 39.282 M147.991 40.390 L 146.847 41.742 148.215 40.582 L 149.583 39.423 152.419 42.084 L 155.255 44.745 152.578 41.892 C 149.487 38.599,149.503 38.604,147.991 40.390 M248.048 42.042 C 248.048 43.363,247.786 44.444,247.466 44.444 C 247.146 44.444,247.055 44.000,247.264 43.457 C 247.492 42.861,247.223 42.162,246.584 41.695 C 245.435 40.855,245.789 39.640,247.183 39.640 C 247.792 39.640,248.048 40.351,248.048 42.042 M153.754 40.705 C 153.754 41.008,154.288 41.739,154.941 42.330 C 155.594 42.920,155.957 43.680,155.749 44.017 C 155.526 44.377,155.668 44.446,156.093 44.183 C 156.650 43.839,156.636 43.509,156.035 42.742 C 154.590 40.898,153.754 40.151,153.754 40.705 M221.622 42.342 C 221.456 42.673,220.718 42.866,219.981 42.772 C 218.987 42.645,218.732 42.839,218.994 43.523 C 219.271 44.245,218.911 44.431,217.332 44.385 C 215.448 44.329,215.414 44.293,216.817 43.844 C 217.744 43.547,217.932 43.340,217.306 43.303 C 216.750 43.270,215.656 43.486,214.875 43.783 C 211.726 44.980,205.678 45.263,206.584 44.171 C 207.071 43.585,208.082 43.244,209.036 43.345 C 209.930 43.438,211.114 43.139,211.668 42.679 C 213.600 41.075,222.404 40.777,221.622 42.342 M232.601 42.020 C 232.770 42.668,232.516 43.525,232.036 43.923 C 231.556 44.322,231.211 44.399,231.268 44.096 C 231.634 42.176,231.152 41.907,229.732 43.241 C 228.908 44.016,228.088 44.505,227.912 44.328 C 227.530 43.946,230.729 41.715,231.381 41.908 C 231.629 41.982,231.832 41.772,231.832 41.441 C 231.832 40.437,232.274 40.769,232.601 42.020 M171.535 45.296 C 171.387 45.653,171.245 45.473,171.219 44.895 C 171.147 43.306,170.551 43.715,163.334 50.300 C 161.795 51.704,160.168 52.853,159.718 52.853 C 158.601 52.853,164.660 46.799,167.579 44.998 C 169.028 44.104,169.945 43.081,169.958 42.342 C 169.974 41.371,170.152 41.477,170.891 42.893 C 171.394 43.857,171.684 44.938,171.535 45.296 M185.135 41.839 C 184.722 42.006,184.384 42.496,184.384 42.929 C 184.384 43.361,184.017 43.856,183.568 44.029 C 183.014 44.241,182.796 43.924,182.891 43.042 C 183.072 41.347,182.980 41.434,184.535 41.489 C 185.278 41.515,185.548 41.673,185.135 41.839 M252.252 42.023 C 252.252 42.343,252.725 42.453,253.303 42.267 C 254.136 41.999,254.178 42.054,253.508 42.530 C 252.587 43.185,251.051 42.839,251.051 41.978 C 251.051 41.683,251.321 41.441,251.652 41.441 C 251.982 41.441,252.252 41.703,252.252 42.023 M181.982 42.609 C 181.982 42.921,181.351 43.909,180.581 44.805 C 179.573 45.976,179.179 46.164,179.179 45.473 C 179.179 44.944,179.472 44.564,179.830 44.628 C 180.188 44.692,180.517 44.339,180.561 43.844 C 180.606 43.348,180.673 42.740,180.712 42.492 C 180.813 41.834,181.982 41.941,181.982 42.609 M146.732 44.294 C 147.923 45.203,149.990 46.847,151.326 47.948 C 152.661 49.050,153.754 49.810,153.754 49.638 C 153.754 49.082,145.900 42.643,145.222 42.643 C 144.861 42.643,145.541 43.386,146.732 44.294 M158.100 46.538 C 156.095 48.690,154.637 50.450,154.859 50.450 C 155.450 50.450,162.306 43.187,162.002 42.883 C 161.860 42.741,160.104 44.386,158.100 46.538 M189.139 44.068 C 188.526 44.616,184.985 46.247,184.985 45.981 C 184.985 45.607,188.099 43.900,188.839 43.868 C 189.142 43.855,189.277 43.945,189.139 44.068 M200.601 46.574 C 200.601 48.352,197.920 51.321,196.889 50.684 C 196.438 50.405,196.700 50.064,197.628 49.721 C 199.354 49.083,199.979 48.204,199.991 46.396 C 199.996 45.653,200.135 45.045,200.300 45.045 C 200.465 45.045,200.601 45.733,200.601 46.574 M219.520 45.700 C 220.639 46.232,220.629 46.253,219.369 46.015 C 218.626 45.873,218.018 45.968,218.018 46.224 C 218.018 46.481,216.795 47.033,215.300 47.452 C 212.149 48.334,211.239 49.249,213.514 49.249 C 214.409 49.249,214.926 48.991,214.715 48.649 C 214.511 48.318,214.787 48.048,215.330 48.048 C 216.796 48.048,216.053 49.461,214.370 49.874 C 212.521 50.328,210.711 49.896,211.193 49.117 C 211.420 48.749,211.066 48.677,210.270 48.930 C 209.560 49.155,209.018 49.117,209.065 48.844 C 209.277 47.628,208.959 46.807,208.408 47.147 C 208.078 47.351,207.808 47.252,207.808 46.926 C 207.808 46.601,207.470 46.219,207.057 46.078 C 206.644 45.936,206.982 45.951,207.808 46.109 C 210.501 46.627,215.419 46.634,216.581 46.122 C 217.553 45.693,217.522 45.658,216.366 45.878 C 215.622 46.019,215.165 45.889,215.350 45.590 C 215.777 44.899,217.955 44.957,219.520 45.700 M232.947 46.180 C 233.515 46.540,233.561 46.821,233.097 47.108 C 232.732 47.333,232.432 47.241,232.432 46.901 C 232.432 46.562,231.983 46.457,231.433 46.667 C 230.761 46.925,230.576 46.821,230.868 46.348 C 231.381 45.518,231.843 45.481,232.947 46.180 M209.885 47.487 C 209.693 47.798,210.087 47.968,210.759 47.865 C 212.441 47.608,212.808 47.117,211.397 47.011 C 210.757 46.963,210.077 47.177,209.885 47.487 M231.209 48.337 C 235.000 50.258,235.317 50.863,232.691 51.170 C 231.518 51.307,230.423 51.201,230.258 50.935 C 230.094 50.668,230.448 50.429,231.046 50.403 C 231.682 50.375,231.820 50.230,231.378 50.051 C 230.963 49.884,230.748 49.545,230.901 49.298 C 231.053 49.051,230.797 48.849,230.330 48.849 C 229.864 48.849,229.628 49.085,229.806 49.373 C 229.987 49.665,229.374 49.696,228.429 49.445 C 227.493 49.195,225.916 49.037,224.925 49.094 C 223.220 49.190,223.186 49.149,224.289 48.322 C 225.809 47.182,224.802 47.206,222.583 48.363 C 221.626 48.862,220.740 49.168,220.614 49.043 C 220.112 48.540,224.451 46.873,226.296 46.861 C 227.381 46.853,229.591 47.517,231.209 48.337 M253.393 48.386 C 253.699 48.197,253.882 48.497,253.800 49.054 C 253.564 50.662,251.548 51.031,249.782 49.788 C 248.919 49.181,247.976 48.879,247.686 49.117 C 247.397 49.355,247.646 48.970,248.240 48.262 C 249.243 47.067,249.446 47.037,251.079 47.852 C 252.046 48.334,253.088 48.574,253.393 48.386 M196.387 48.198 C 196.382 48.611,196.088 49.354,195.734 49.850 C 195.215 50.577,195.146 50.497,195.379 49.431 C 195.572 48.546,195.342 48.025,194.680 47.849 C 194.015 47.672,194.134 47.564,195.045 47.517 C 195.788 47.479,196.392 47.785,196.387 48.198 M244.444 49.850 C 244.940 50.170,245.210 50.457,245.045 50.487 C 243.816 50.713,242.793 50.995,241.892 51.358 C 240.687 51.842,240.495 51.036,241.562 49.970 C 242.428 49.104,243.238 49.070,244.444 49.850 M228.829 50.751 C 229.459 51.510,229.345 51.652,228.102 51.652 C 227.191 51.652,226.627 51.307,226.627 50.751 C 226.627 50.255,226.954 49.850,227.354 49.850 C 227.754 49.850,228.418 50.255,228.829 50.751 M264.358 53.153 C 264.734 53.543,264.804 53.407,264.559 52.763 C 263.479 49.924,265.505 51.654,267.137 54.964 C 268.847 58.432,268.921 61.401,267.216 58.125 C 266.238 56.245,266.313 56.282,264.951 57.011 C 263.743 57.657,263.746 57.693,265.325 61.114 C 266.201 63.012,267.628 66.997,268.497 69.970 L 270.076 75.375 271.975 75.223 C 274.307 75.036,274.499 76.116,272.222 76.615 C 271.314 76.814,270.240 77.078,269.836 77.202 C 269.400 77.336,268.833 76.403,268.440 74.900 C 266.593 67.854,265.790 65.456,264.129 62.033 L 262.318 58.300 259.537 59.836 C 255.725 61.942,255.773 61.846,257.073 64.751 L 258.231 67.338 255.692 68.491 C 252.886 69.764,251.652 69.955,251.652 69.116 C 251.652 68.811,252.594 68.251,253.745 67.871 C 256.645 66.914,256.693 66.638,254.640 62.735 C 252.747 59.136,252.626 58.117,254.291 59.782 C 255.332 60.823,264.751 56.497,265.349 54.703 C 265.540 54.131,265.315 54.138,264.363 54.732 C 263.334 55.375,262.951 55.346,262.046 54.556 C 261.449 54.036,260.556 53.481,260.060 53.324 C 259.426 53.122,259.783 52.654,261.261 51.744 C 263.197 50.553,263.380 50.534,263.572 51.502 C 263.686 52.080,264.040 52.823,264.358 53.153 M194.893 52.340 C 194.522 53.307,192.192 53.700,192.192 52.796 C 192.192 52.264,194.676 50.999,195.059 51.335 C 195.150 51.415,195.075 51.867,194.893 52.340 M230.998 53.772 C 232.296 55.753,231.925 56.029,227.531 56.347 C 224.818 56.543,223.970 56.428,224.292 55.908 C 224.532 55.520,224.401 54.809,224.002 54.328 C 223.140 53.289,224.265 53.128,226.537 53.966 C 230.197 55.315,231.454 55.172,228.529 53.739 L 225.526 52.268 227.764 52.260 C 229.501 52.254,230.225 52.593,230.998 53.772 M206.003 57.658 C 206.105 57.162,206.225 56.486,206.270 56.156 C 206.682 53.097,207.512 54.127,207.510 57.695 C 207.509 59.986,207.305 61.861,207.057 61.861 C 206.809 61.862,206.607 61.441,206.607 60.926 C 206.607 60.411,206.365 60.139,206.069 60.321 C 205.239 60.835,204.795 59.068,204.899 55.657 L 204.994 52.553 205.405 55.556 C 205.632 57.207,205.901 58.153,206.003 57.658 M222.689 53.788 C 224.194 54.842,224.441 55.856,223.192 55.856 C 222.735 55.856,221.918 55.180,221.377 54.354 C 220.254 52.641,220.747 52.428,222.689 53.788 M217.320 54.505 C 216.973 56.116,219.413 59.402,220.114 58.268 C 220.322 57.932,220.205 57.658,219.855 57.658 C 219.505 57.658,219.251 57.050,219.289 56.306 C 219.345 55.223,219.415 55.172,219.642 56.050 C 219.800 56.662,220.280 57.009,220.729 56.837 C 221.172 56.667,221.857 56.917,222.252 57.393 C 224.049 59.558,219.630 61.002,216.950 59.125 C 215.139 57.856,215.114 54.054,216.917 54.054 C 217.192 54.054,217.374 54.257,217.320 54.505 M154.054 56.456 C 153.456 57.117,152.401 57.641,151.709 57.620 C 150.493 57.583,150.496 57.563,151.802 57.038 C 152.545 56.740,153.153 56.216,153.153 55.875 C 153.153 55.534,153.600 55.255,154.147 55.255 C 155.041 55.255,155.032 55.376,154.054 56.456 M235.736 57.658 C 236.792 59.331,237.660 60.049,238.596 60.022 L 239.940 59.984 238.628 59.455 C 237.906 59.165,237.028 58.389,236.676 57.731 C 235.848 56.184,235.866 56.056,236.911 56.056 C 237.391 56.056,237.628 56.310,237.436 56.621 C 237.233 56.950,237.620 57.017,238.363 56.781 C 239.149 56.531,239.640 56.636,239.640 57.052 C 239.640 57.424,239.894 57.571,240.205 57.379 C 240.956 56.915,240.237 61.442,239.480 61.938 C 238.381 62.660,236.470 61.668,235.505 59.875 C 234.971 58.882,234.084 57.594,233.534 57.013 C 232.579 56.006,232.662 55.255,233.726 55.255 C 233.997 55.255,234.902 56.336,235.736 57.658 M163.640 56.665 C 164.249 57.110,164.503 57.616,164.205 57.789 C 163.907 57.963,163.143 57.599,162.508 56.980 C 161.178 55.687,161.992 55.460,163.640 56.665 M198.799 58.294 C 198.799 58.644,199.069 58.763,199.399 58.559 C 199.730 58.354,200.000 58.471,200.000 58.817 C 200.000 59.163,199.324 59.390,198.498 59.322 C 196.992 59.197,196.651 58.805,197.397 58.058 C 198.008 57.448,198.799 57.581,198.799 58.294 M166.066 60.060 C 166.579 61.051,166.863 61.862,166.698 61.862 C 166.532 61.862,165.978 61.051,165.465 60.060 C 164.953 59.069,164.669 58.258,164.834 58.258 C 164.999 58.258,165.554 59.069,166.066 60.060 M203.958 61.366 C 204.655 62.714,204.701 63.129,204.131 62.939 C 203.706 62.797,202.998 61.799,202.558 60.721 C 201.578 58.320,202.634 58.806,203.958 61.366 M189.105 61.738 C 188.656 61.860,187.275 62.340,186.036 62.807 C 183.013 63.944,183.143 63.310,186.182 62.094 C 187.672 61.497,188.425 60.874,188.169 60.447 C 187.943 60.069,188.244 60.155,188.839 60.639 C 189.664 61.308,189.727 61.570,189.105 61.738 M198.498 61.228 C 199.163 61.495,200.202 61.449,200.823 61.126 C 201.571 60.736,201.822 60.743,201.572 61.147 C 201.065 61.968,201.792 63.740,202.465 63.324 C 203.124 62.917,203.152 63.700,202.515 64.704 C 202.174 65.240,201.503 64.948,200.076 63.645 C 198.994 62.656,197.876 61.990,197.594 62.164 C 197.311 62.339,196.910 62.207,196.703 61.872 C 196.495 61.536,195.920 61.261,195.425 61.261 C 194.897 61.261,194.701 61.548,194.952 61.955 C 195.220 62.388,195.117 62.485,194.678 62.213 C 192.758 61.027,195.951 60.204,198.498 61.228 M227.271 61.953 C 227.779 61.132,231.762 61.046,233.000 61.829 C 233.478 62.131,234.559 64.337,235.403 66.732 C 236.247 69.127,237.342 71.217,237.838 71.376 C 238.535 71.601,238.590 71.475,238.081 70.818 C 236.918 69.318,236.613 67.897,237.530 68.248 C 237.988 68.424,238.230 68.912,238.069 69.333 C 237.901 69.771,238.518 70.406,239.513 70.818 C 241.091 71.472,243.710 75.409,243.024 76.096 C 242.874 76.245,242.574 75.807,242.357 75.122 C 242.140 74.437,241.304 73.712,240.501 73.510 C 239.697 73.308,239.039 72.902,239.039 72.608 C 239.039 72.313,238.744 72.072,238.383 72.072 C 237.212 72.072,235.031 69.981,235.315 69.130 C 235.499 68.579,235.333 68.461,234.820 68.778 C 234.319 69.087,234.196 69.016,234.470 68.574 C 236.208 65.761,229.136 61.013,226.972 63.540 C 225.060 65.773,225.110 66.644,227.109 65.947 C 229.549 65.097,231.395 65.998,233.258 68.950 C 234.067 70.231,235.151 71.702,235.667 72.218 C 236.454 73.005,236.469 73.209,235.761 73.481 C 234.893 73.814,233.315 72.126,231.216 68.619 C 230.022 66.624,227.009 65.839,226.113 67.288 C 225.873 67.677,226.302 67.805,227.262 67.631 C 228.992 67.317,231.832 70.084,231.832 72.083 C 231.832 72.699,232.102 73.369,232.432 73.574 C 232.763 73.778,233.024 74.267,233.013 74.660 C 232.983 75.719,230.631 72.699,230.631 71.602 C 230.631 69.197,227.408 67.549,226.853 69.670 C 226.653 70.435,226.774 70.727,227.185 70.473 C 227.594 70.220,227.691 70.440,227.448 71.073 C 227.237 71.622,227.318 72.072,227.628 72.072 C 227.937 72.072,228.018 72.522,227.807 73.071 C 227.529 73.797,227.641 73.936,228.219 73.579 C 228.741 73.257,228.871 73.320,228.597 73.763 C 228.367 74.135,228.602 75.256,229.118 76.255 C 229.634 77.253,230.298 78.703,230.592 79.478 L 231.127 80.885 227.796 79.786 C 219.653 77.100,205.233 76.035,200.202 77.749 C 198.546 78.312,196.915 75.922,198.286 74.942 C 198.904 74.501,198.846 74.442,198.048 74.699 C 196.245 75.279,196.900 74.060,198.818 73.265 C 199.820 72.850,200.518 72.390,200.371 72.243 C 200.224 72.095,199.539 72.276,198.850 72.645 C 198.161 73.014,197.598 73.193,197.598 73.043 C 197.598 72.893,197.437 72.276,197.241 71.671 C 196.989 70.896,197.048 70.799,197.439 71.342 C 198.151 72.331,200.174 71.590,199.753 70.493 C 199.579 70.040,199.699 69.670,200.019 69.670 C 200.339 69.670,200.601 69.985,200.601 70.370 C 200.601 70.756,200.758 70.914,200.950 70.722 C 201.141 70.530,201.000 69.816,200.635 69.134 C 200.075 68.087,200.125 67.954,200.957 68.273 C 201.799 68.596,201.841 68.463,201.250 67.358 C 200.462 65.886,200.544 65.846,202.680 66.658 C 204.067 67.185,204.175 67.134,203.668 66.186 C 203.018 64.972,205.328 64.546,206.147 65.729 C 206.453 66.171,206.591 66.163,206.597 65.701 C 206.603 65.330,207.736 65.008,209.159 64.972 C 214.789 64.834,217.316 64.587,217.076 64.198 C 216.937 63.973,217.219 63.638,217.702 63.453 C 218.185 63.267,218.743 63.378,218.941 63.700 C 219.140 64.021,219.554 64.128,219.861 63.938 C 220.169 63.748,220.420 64.059,220.420 64.629 C 220.420 65.199,220.583 65.503,220.782 65.304 C 220.982 65.104,221.757 65.174,222.505 65.459 C 223.633 65.888,224.099 65.659,225.237 64.120 C 226.195 62.824,226.330 62.371,225.685 62.618 C 224.998 62.882,224.839 62.673,225.067 61.803 C 225.348 60.726,225.431 60.713,226.108 61.639 C 226.625 62.346,226.971 62.439,227.271 61.953 M150.144 62.154 C 150.791 62.935,150.630 62.961,148.866 62.365 C 146.218 61.471,146.030 61.261,147.874 61.261 C 148.715 61.261,149.736 61.663,150.144 62.154 M245.044 61.993 C 245.045 62.230,244.302 62.854,243.393 63.379 C 241.738 64.336,242.860 64.328,245.195 63.367 C 246.301 62.912,246.542 63.470,245.766 64.691 C 245.146 65.666,240.841 67.435,240.841 66.715 C 240.841 66.403,241.449 65.954,242.192 65.717 C 244.023 65.135,241.925 64.245,239.640 64.634 C 238.184 64.882,238.178 64.869,239.437 64.208 C 240.152 63.833,240.868 63.026,241.028 62.413 C 241.313 61.322,245.041 60.932,245.044 61.993 M251.058 62.475 C 251.415 63.142,251.521 63.990,251.294 64.358 C 250.913 64.973,249.327 62.898,249.271 61.712 C 249.227 60.789,250.431 61.303,251.058 62.475 M193.343 62.076 C 193.206 62.194,192.147 62.464,190.991 62.676 C 189.512 62.947,189.156 62.886,189.790 62.471 C 190.604 61.937,193.939 61.566,193.343 62.076 M187.863 74.886 C 186.694 77.269,183.975 79.112,183.031 78.161 C 182.432 77.557,182.493 77.487,183.340 77.809 C 184.144 78.115,184.309 77.980,184.027 77.244 C 183.822 76.712,183.946 76.276,184.301 76.276 C 184.657 76.276,184.792 75.871,184.602 75.375 C 184.411 74.880,184.502 74.474,184.803 74.474 C 185.104 74.474,185.394 73.461,185.449 72.222 C 185.529 70.398,185.795 68.544,186.140 67.417 C 186.166 67.335,186.247 67.065,186.321 66.817 C 186.395 66.569,186.868 65.883,187.372 65.292 C 188.622 63.826,189.063 72.440,187.863 74.886 M183.996 69.348 C 183.756 75.715,180.713 79.279,175.516 79.279 C 173.502 79.279,174.537 78.049,176.637 77.946 C 179.903 77.787,183.171 72.877,183.180 68.118 C 183.183 66.618,183.566 65.465,184.063 65.465 C 184.107 65.465,184.076 67.212,183.996 69.348 M146.349 67.159 C 146.229 67.384,145.956 68.058,145.742 68.657 C 145.529 69.256,145.077 69.575,144.739 69.366 C 144.401 69.157,144.328 68.667,144.576 68.277 C 144.824 67.887,145.065 67.365,145.111 67.117 C 145.157 66.869,145.229 66.516,145.270 66.331 C 145.312 66.146,145.620 66.165,145.956 66.372 C 146.291 66.580,146.468 66.934,146.349 67.159 M249.399 67.085 C 250.388 67.640,249.756 68.168,248.105 68.168 C 247.146 68.168,246.515 67.920,246.702 67.616 C 246.901 67.294,246.563 67.259,245.894 67.532 C 244.066 68.277,239.640 68.677,239.641 68.096 C 239.642 67.805,240.615 67.498,241.804 67.413 C 242.993 67.328,244.412 67.005,244.956 66.696 C 245.838 66.194,248.176 66.399,249.399 67.085 M135.357 70.720 C 135.203 71.566,134.830 72.721,134.527 73.287 C 134.224 73.853,134.169 74.531,134.406 74.792 C 134.642 75.054,134.513 75.083,134.120 74.858 C 133.587 74.552,133.569 73.977,134.051 72.595 C 134.419 71.538,134.468 70.576,134.165 70.356 C 133.135 69.608,133.371 68.591,134.505 68.887 C 135.345 69.107,135.564 69.578,135.357 70.720 M174.780 70.558 C 174.056 72.461,172.315 74.726,171.457 74.880 C 171.135 74.939,170.370 75.181,169.757 75.419 C 168.422 75.938,172.489 70.000,174.077 69.111 C 175.405 68.368,175.521 68.607,174.780 70.558 M251.989 71.706 C 252.183 72.477,252.229 74.023,252.092 75.142 C 251.874 76.930,251.832 76.854,251.748 74.513 C 251.682 72.683,251.229 71.389,250.300 70.378 L 248.949 68.906 250.293 69.605 C 251.033 69.990,251.796 70.935,251.989 71.706 M144.745 71.729 C 144.745 72.914,143.413 75.075,142.683 75.075 C 142.588 75.075,142.798 73.994,143.150 72.673 C 143.864 70.001,144.745 69.479,144.745 71.729 M248.207 71.468 C 249.045 72.127,250.013 73.478,250.359 74.471 C 251.109 76.623,250.666 76.922,249.862 74.806 C 248.961 72.436,246.476 71.121,244.386 71.910 C 243.159 72.374,242.532 72.378,242.252 71.926 C 242.035 71.574,242.104 71.439,242.407 71.626 C 242.710 71.814,243.630 71.595,244.452 71.140 C 246.397 70.063,246.425 70.066,248.207 71.468 M278.180 70.871 C 278.211 72.431,279.156 74.995,279.177 73.574 C 279.187 72.913,278.963 71.832,278.679 71.171 C 278.362 70.435,278.169 70.319,278.180 70.871 M181.572 72.523 C 180.989 74.166,179.623 75.525,178.189 75.889 C 177.127 76.159,177.250 75.913,178.834 74.597 C 179.911 73.704,180.789 72.635,180.786 72.222 C 180.783 71.809,181.043 71.471,181.363 71.471 C 181.682 71.471,181.777 71.944,181.572 72.523 M175.988 73.866 C 174.877 74.553,174.642 74.318,175.141 73.019 C 175.429 72.267,175.713 72.170,176.201 72.657 C 176.688 73.145,176.632 73.469,175.988 73.866 M198.195 78.100 C 198.197 78.278,197.714 78.460,197.123 78.504 C 196.343 78.563,196.039 78.143,196.018 76.980 C 196.002 76.098,195.790 74.835,195.546 74.174 C 195.303 73.514,195.798 74.054,196.648 75.375 C 197.497 76.697,198.193 77.923,198.195 78.100 M248.535 74.498 C 249.258 75.171,249.850 76.095,249.850 76.550 C 249.850 77.005,250.188 77.497,250.601 77.644 C 251.672 78.023,249.172 81.330,247.639 81.560 C 246.985 81.658,245.796 81.194,244.997 80.529 C 244.197 79.864,243.865 79.310,244.259 79.299 C 244.652 79.288,245.142 79.552,245.348 79.884 C 245.824 80.654,247.140 79.391,247.700 77.627 C 247.957 76.819,247.735 75.756,247.110 74.802 C 245.907 72.967,246.708 72.796,248.535 74.498 M242.278 77.226 C 243.040 79.213,242.625 80.161,241.738 78.460 C 240.691 76.452,240.662 76.276,241.377 76.276 C 241.672 76.276,242.078 76.704,242.278 77.226 M261.486 78.893 C 262.305 82.154,262.641 90.691,261.950 90.691 C 261.569 90.691,261.261 89.792,261.261 88.677 C 261.261 82.031,260.549 79.209,258.920 79.398 C 257.589 79.553,257.377 79.847,257.487 81.381 C 257.558 82.372,257.693 85.793,257.787 88.983 L 257.958 94.783 260.060 95.133 C 261.216 95.325,263.176 95.485,264.414 95.489 C 267.106 95.497,267.150 95.767,265.673 103.210 C 264.537 108.930,264.422 108.723,269.419 109.922 C 272.868 110.749,273.053 111.041,272.014 114.024 C 271.212 116.323,270.173 115.950,270.656 113.535 C 270.996 111.839,270.913 111.775,266.798 110.550 L 262.592 109.297 263.646 105.850 C 265.224 100.685,265.637 97.314,264.724 97.033 C 264.306 96.904,262.566 96.655,260.858 96.481 L 257.752 96.164 257.362 98.683 C 256.537 104.013,254.499 110.319,251.927 115.495 C 250.454 118.459,249.249 120.963,249.249 121.060 C 249.249 121.156,250.601 122.111,252.252 123.181 C 253.904 124.252,255.255 125.502,255.255 125.961 C 255.255 126.642,255.011 126.623,253.920 125.860 C 252.066 124.561,252.121 124.534,249.023 128.297 C 245.772 132.246,245.293 131.500,248.348 127.248 C 250.903 123.691,250.905 123.651,248.602 122.290 L 246.753 121.198 248.009 119.861 C 249.260 118.530,254.027 108.449,254.045 107.099 C 254.050 106.709,253.467 106.303,252.750 106.198 C 250.591 105.880,250.749 104.610,252.934 104.713 C 255.208 104.820,255.437 104.197,256.426 95.195 C 257.333 86.930,256.879 85.108,254.033 85.589 C 252.791 85.799,251.615 85.712,251.420 85.396 C 251.031 84.767,252.936 84.105,255.173 84.092 C 256.509 84.085,256.570 83.929,256.197 81.447 L 255.802 78.811 258.081 78.206 C 259.335 77.874,260.534 77.574,260.746 77.540 C 260.958 77.505,261.291 78.115,261.486 78.893 M280.019 79.880 C 280.019 81.036,280.143 81.509,280.294 80.931 C 280.445 80.353,280.445 79.407,280.294 78.829 C 280.143 78.251,280.019 78.724,280.019 79.880 M252.252 79.513 C 252.252 80.773,250.111 83.190,249.652 82.448 C 249.438 82.101,249.665 81.484,250.157 81.076 C 250.649 80.667,251.051 79.961,251.051 79.506 C 251.051 79.051,251.321 78.679,251.652 78.679 C 251.982 78.679,252.252 79.054,252.252 79.513 M159.858 85.530 C 159.629 88.413,161.153 90.736,163.213 90.643 C 163.841 90.615,163.962 90.474,163.514 90.293 C 163.101 90.126,162.731 88.999,162.693 87.788 C 162.655 86.577,162.500 86.059,162.349 86.637 C 162.065 87.724,160.961 88.116,160.961 87.130 C 160.961 86.401,162.822 84.544,163.187 84.909 C 163.342 85.064,163.697 86.090,163.976 87.190 C 164.255 88.289,164.668 89.797,164.894 90.541 C 165.426 92.289,161.714 92.527,160.210 90.841 C 158.982 89.464,158.489 82.883,159.614 82.883 C 159.864 82.883,159.974 84.074,159.858 85.530 M280.697 89.489 C 280.697 92.628,280.798 93.911,280.922 92.342 C 281.046 90.773,281.046 88.206,280.922 86.637 C 280.798 85.068,280.697 86.351,280.697 89.489 M250.330 86.006 C 251.799 87.475,251.243 89.043,249.629 87.985 C 248.847 87.472,246.833 87.002,245.154 86.940 C 241.822 86.816,241.572 86.601,244.207 86.123 C 245.149 85.953,246.038 85.694,246.183 85.549 C 246.735 84.997,249.641 85.317,250.330 86.006 M238.471 88.063 C 239.860 89.525,240.124 90.027,239.274 89.589 C 238.212 89.043,235.595 85.886,236.205 85.886 C 236.313 85.886,237.332 86.866,238.471 88.063 M250.388 89.438 C 250.940 89.788,251.062 90.348,250.745 91.081 C 250.299 92.113,250.247 92.117,250.013 91.141 C 249.875 90.563,249.511 90.090,249.205 90.090 C 248.899 90.090,248.649 89.820,248.649 89.489 C 248.649 88.753,249.277 88.735,250.388 89.438 M253.448 92.042 C 253.440 96.264,252.718 100.956,252.109 100.753 C 251.429 100.526,251.121 94.294,251.790 94.294 C 252.044 94.294,252.252 93.213,252.252 91.892 C 252.252 90.571,252.523 89.489,252.853 89.489 C 253.183 89.489,253.451 90.638,253.448 92.042 M248.377 92.280 C 249.904 93.928,250.291 95.753,249.249 96.396 C 248.919 96.601,248.649 96.386,248.649 95.919 C 248.649 94.944,246.432 92.403,244.712 91.405 C 243.641 90.784,243.684 90.726,245.224 90.709 C 246.286 90.697,247.446 91.275,248.377 92.280 M240.309 98.928 C 239.616 100.463,239.584 101.140,240.152 102.231 L 240.866 103.604 240.578 102.097 C 240.156 99.887,241.144 98.475,242.168 99.826 C 242.594 100.387,243.635 101.103,244.480 101.416 C 246.555 102.184,249.333 107.302,248.095 108.074 C 247.198 108.634,244.697 104.953,245.305 103.969 C 245.467 103.707,244.421 103.534,242.981 103.585 C 239.495 103.708,238.386 102.825,238.583 100.081 C 238.669 98.882,238.957 97.900,239.225 97.899 C 239.492 97.898,239.555 97.646,239.365 97.339 C 239.175 97.031,239.299 96.607,239.640 96.396 C 239.981 96.186,240.103 95.759,239.911 95.449 C 239.719 95.138,239.774 94.278,240.033 93.538 C 240.439 92.377,240.550 92.523,240.842 94.595 C 241.053 96.094,240.852 97.723,240.309 98.928 M155.182 95.725 C 156.031 97.173,157.176 98.531,157.727 98.742 C 158.474 99.029,158.578 98.932,158.136 98.362 C 157.345 97.341,156.517 95.008,157.226 95.796 C 157.523 96.126,158.630 97.708,159.686 99.312 L 161.605 102.227 159.331 100.848 C 158.080 100.090,156.584 99.186,156.006 98.839 C 154.539 97.961,152.329 93.093,153.396 93.093 C 153.530 93.093,154.334 94.278,155.182 95.725 M168.411 96.353 C 169.292 97.855,169.952 99.881,169.930 101.008 L 169.890 103.003 169.130 100.601 C 168.712 99.279,167.919 97.333,167.368 96.276 C 165.474 92.642,166.271 92.701,168.411 96.353 M171.772 99.700 C 171.772 101.270,171.434 102.836,171.021 103.179 C 170.433 103.667,170.270 102.913,170.270 99.700 C 170.270 96.486,170.433 95.733,171.021 96.221 C 171.434 96.563,171.772 98.129,171.772 99.700 M245.935 96.714 C 245.772 96.978,245.978 97.332,246.393 97.499 C 246.824 97.673,246.866 97.823,246.489 97.850 C 246.128 97.877,245.360 97.376,244.783 96.738 C 243.776 95.626,243.784 95.592,244.983 95.906 C 245.670 96.086,246.099 96.449,245.935 96.714 M221.212 96.655 C 222.517 97.151,222.723 97.676,223.043 101.310 C 223.241 103.562,223.568 106.516,223.769 107.874 C 224.124 110.274,222.340 112.159,221.303 110.480 C 221.127 110.195,220.586 110.115,220.101 110.301 C 219.616 110.487,219.219 110.331,219.219 109.955 C 219.219 109.579,218.746 109.094,218.168 108.877 C 217.590 108.660,216.759 108.061,216.322 107.545 C 215.884 107.029,215.698 106.944,215.907 107.357 C 216.365 108.262,216.151 108.282,214.153 107.522 C 213.306 107.200,212.613 107.175,212.613 107.466 C 212.613 107.757,212.072 107.854,211.411 107.682 C 208.746 106.985,210.446 105.558,214.049 105.467 C 215.406 105.433,216.472 105.135,216.417 104.805 C 216.363 104.474,216.599 103.866,216.941 103.453 C 217.284 103.041,217.319 102.703,217.018 102.703 C 216.718 102.703,216.430 102.095,216.379 101.351 C 216.294 100.123,216.356 100.094,217.052 101.029 C 217.733 101.944,217.818 101.863,217.818 100.305 C 217.818 99.340,217.618 98.675,217.373 98.826 C 217.129 98.977,217.067 98.574,217.235 97.931 C 217.403 97.287,217.986 96.643,218.530 96.498 C 219.074 96.354,219.569 96.204,219.631 96.166 C 219.692 96.127,220.403 96.348,221.212 96.655 M245.735 99.950 C 251.164 102.219,252.126 108.567,248.060 115.296 C 244.885 120.551,244.250 120.836,247.109 115.724 C 250.549 109.573,249.647 102.980,245.039 100.598 C 242.092 99.074,242.571 98.628,245.735 99.950 M230.042 105.396 L 233.357 105.758 233.435 108.735 C 233.478 110.372,233.279 111.712,232.992 111.712 C 232.705 111.712,232.626 112.117,232.816 112.613 C 233.006 113.108,232.871 113.514,232.516 113.514 C 232.160 113.514,232.025 113.919,232.215 114.414 C 232.406 114.910,232.233 115.315,231.832 115.315 C 231.430 115.315,231.258 115.720,231.448 116.216 C 231.639 116.712,231.503 117.117,231.148 117.117 C 230.793 117.117,230.654 117.514,230.840 117.999 C 231.027 118.484,230.916 119.043,230.595 119.241 C 230.273 119.440,230.147 119.823,230.314 120.094 C 230.481 120.364,230.218 120.916,229.730 121.321 C 229.242 121.727,228.991 122.300,229.174 122.595 C 229.356 122.890,229.100 123.287,228.605 123.477 C 228.109 123.668,227.850 124.206,228.030 124.674 C 228.210 125.142,228.029 125.526,227.628 125.526 C 227.227 125.526,227.051 125.922,227.237 126.407 C 227.423 126.892,227.312 127.451,226.991 127.650 C 226.670 127.848,226.551 128.244,226.727 128.529 C 226.903 128.813,226.768 129.219,226.426 129.429 C 226.085 129.640,225.960 130.061,226.148 130.365 C 226.335 130.669,226.066 130.755,225.550 130.557 C 224.868 130.295,224.713 130.462,224.982 131.164 C 225.187 131.697,225.063 132.132,224.708 132.132 C 224.343 132.132,224.233 132.589,224.456 133.183 C 224.802 134.109,224.727 134.134,223.822 133.399 C 222.934 132.676,222.843 132.686,223.144 133.471 C 223.343 133.991,223.092 134.533,222.557 134.738 C 222.043 134.936,221.622 135.485,221.622 135.958 C 221.622 137.794,218.063 139.232,214.019 139.032 C 211.420 138.904,210.207 139.065,210.201 139.542 C 210.195 139.977,209.994 139.928,209.668 139.413 C 209.379 138.957,208.861 138.759,208.517 138.972 C 208.173 139.185,207.718 139.080,207.508 138.739 C 207.297 138.398,206.873 138.274,206.565 138.464 C 206.258 138.654,206.006 138.546,206.006 138.224 C 206.006 137.901,206.209 137.524,206.456 137.386 C 206.704 137.247,206.578 137.213,206.175 137.309 C 205.773 137.406,205.281 137.222,205.083 136.901 C 204.884 136.580,204.428 136.498,204.070 136.720 C 203.701 136.948,203.589 136.845,203.813 136.483 C 204.426 135.492,203.604 133.972,202.653 134.336 C 202.185 134.516,201.802 134.335,201.802 133.934 C 201.802 133.488,201.394 133.360,200.751 133.605 C 199.944 133.912,199.864 133.840,200.404 133.295 C 201.313 132.379,200.135 129.549,199.023 129.976 C 198.522 130.168,198.387 129.935,198.631 129.300 C 198.900 128.599,198.768 128.454,198.150 128.776 C 197.681 129.021,197.973 128.615,198.799 127.874 C 199.791 126.984,199.944 126.657,199.249 126.908 C 198.671 127.118,198.198 127.185,198.198 127.057 C 198.198 126.930,198.038 126.330,197.841 125.725 C 197.575 124.903,197.631 124.831,198.065 125.437 C 198.513 126.064,198.933 126.097,199.898 125.580 C 200.935 125.025,201.258 125.111,201.777 126.079 C 202.588 127.595,202.570 128.102,201.724 127.579 C 201.308 127.323,201.163 127.483,201.349 127.994 C 201.515 128.453,201.989 128.750,202.401 128.654 C 202.857 128.548,203.011 128.843,202.794 129.408 C 202.508 130.154,202.923 130.089,204.904 129.079 C 206.902 128.059,207.467 127.973,207.880 128.625 C 208.274 129.246,208.392 129.193,208.399 128.393 C 208.407 127.537,208.669 127.456,209.910 127.928 C 210.912 128.309,211.411 128.292,211.411 127.878 C 211.411 127.536,211.630 127.391,211.896 127.556 C 212.163 127.721,213.683 128.012,215.274 128.203 C 216.866 128.394,218.380 128.681,218.639 128.842 C 219.417 129.322,221.021 128.461,221.021 127.563 C 221.021 126.814,221.415 126.619,222.606 126.778 C 223.048 126.837,224.001 125.458,224.015 124.739 C 224.020 124.472,223.712 124.446,223.331 124.682 C 222.922 124.935,222.799 124.848,223.032 124.471 C 223.249 124.120,222.906 122.616,222.269 121.130 C 221.632 119.644,221.293 118.225,221.516 117.977 C 221.739 117.728,221.596 117.712,221.197 117.941 C 220.799 118.170,220.625 118.754,220.811 119.238 C 220.997 119.723,220.850 120.120,220.485 120.120 C 220.119 120.120,219.820 119.882,219.820 119.591 C 219.820 119.300,218.806 119.113,217.568 119.175 C 216.176 119.245,214.768 118.874,213.883 118.203 C 212.107 116.856,210.884 116.832,209.063 118.108 C 207.973 118.872,207.711 118.906,207.922 118.258 C 208.499 116.486,212.997 115.529,215.050 116.742 C 216.341 117.505,217.373 117.694,218.505 117.375 C 219.394 117.126,220.495 116.986,220.952 117.064 C 221.486 117.156,221.654 116.867,221.422 116.261 C 221.222 115.741,221.312 115.315,221.622 115.315 C 221.931 115.315,222.029 114.910,221.839 114.414 C 221.649 113.919,221.796 113.514,222.167 113.514 C 223.107 113.514,225.265 109.807,224.963 108.711 C 223.818 104.556,223.877 103.865,225.325 104.460 C 226.096 104.776,228.219 105.198,230.042 105.396 M206.616 105.211 C 206.623 105.800,206.776 105.773,207.207 105.105 C 207.703 104.338,207.791 104.364,207.799 105.274 C 207.804 105.863,207.470 106.474,207.057 106.632 C 206.616 106.801,206.326 107.920,206.354 109.344 C 206.380 110.677,206.176 111.907,205.902 112.076 C 205.627 112.246,205.679 112.903,206.018 113.536 C 206.527 114.487,206.463 114.622,205.650 114.310 C 204.810 113.988,204.766 114.120,205.349 115.211 C 205.933 116.301,205.889 116.434,205.049 116.112 C 204.210 115.789,204.165 115.922,204.749 117.013 C 205.320 118.080,205.282 118.233,204.518 117.940 C 204.015 117.747,203.604 117.904,203.604 118.290 C 203.604 118.675,203.336 118.825,203.010 118.623 C 202.683 118.421,202.559 118.627,202.733 119.081 C 203.193 120.280,200.013 121.667,199.247 120.601 C 198.841 120.037,198.781 120.117,199.031 120.890 C 199.355 121.892,196.701 123.628,195.968 122.894 C 195.823 122.750,196.266 122.454,196.952 122.237 C 198.358 121.790,198.461 121.412,197.532 120.120 C 196.985 119.360,196.936 119.383,197.222 120.270 C 197.408 120.848,197.455 121.321,197.328 121.321 C 197.200 121.321,196.600 121.482,195.995 121.678 C 195.180 121.943,195.104 121.886,195.702 121.458 C 196.371 120.979,196.344 120.561,195.545 119.015 C 194.642 117.269,194.647 117.175,195.619 117.548 C 196.540 117.901,196.558 117.839,195.776 116.994 C 195.291 116.470,194.625 116.201,194.294 116.395 C 193.964 116.588,194.099 116.239,194.595 115.618 C 195.409 114.598,195.397 114.527,194.475 114.872 C 193.711 115.158,193.548 115.011,193.826 114.285 C 194.103 113.565,193.979 113.448,193.345 113.831 C 192.661 114.243,192.671 114.121,193.393 113.216 C 194.201 112.205,194.195 112.124,193.340 112.444 C 192.698 112.684,192.039 112.215,191.329 111.013 C 190.631 109.832,189.959 109.346,189.346 109.582 C 188.577 109.877,188.548 109.782,189.178 109.023 C 189.803 108.270,189.771 108.108,188.998 108.108 C 188.481 108.108,187.894 107.841,187.692 107.514 C 187.476 107.165,187.737 107.079,188.327 107.305 C 189.180 107.633,189.230 107.504,188.658 106.437 C 188.290 105.748,187.988 105.083,187.988 104.958 C 187.988 104.834,192.177 104.661,197.297 104.574 C 204.699 104.448,206.608 104.578,206.616 105.211 M278.752 105.405 C 278.703 106.066,278.523 107.282,278.353 108.108 L 278.044 109.610 278.688 108.136 C 279.041 107.326,279.221 106.110,279.087 105.434 C 278.849 104.236,278.840 104.235,278.752 105.405 M177.362 106.361 C 176.800 106.924,174.174 106.412,174.174 105.740 C 174.174 105.505,175.005 105.435,176.021 105.584 C 177.037 105.733,177.641 106.083,177.362 106.361 M245.045 106.907 C 245.772 107.634,246.246 108.909,246.246 110.137 C 246.246 113.996,242.719 114.813,241.965 111.127 L 241.540 109.048 242.609 110.466 C 243.970 112.270,245.389 111.653,244.318 109.723 C 243.917 109.000,243.653 108.186,243.731 107.913 C 243.809 107.641,243.651 107.556,243.378 107.724 C 243.106 107.893,242.556 107.507,242.157 106.868 C 241.131 105.225,243.394 105.256,245.045 106.907 M277.547 110.612 C 277.509 111.163,277.322 112.109,277.132 112.714 C 276.804 113.756,276.822 113.758,277.473 112.744 C 277.850 112.155,278.037 111.209,277.888 110.642 C 277.644 109.712,277.610 109.709,277.547 110.612 M247.487 113.114 C 246.988 113.612,246.884 113.400,247.085 112.299 C 247.475 110.174,247.553 110.078,247.874 111.325 C 248.032 111.938,247.857 112.743,247.487 113.114 M149.409 113.516 C 148.205 115.444,149.485 116.817,152.488 116.817 C 154.631 116.817,154.837 116.922,153.952 117.568 C 150.941 119.765,147.350 116.814,148.713 113.262 C 148.913 112.740,149.321 112.312,149.619 112.312 C 149.917 112.312,149.822 112.854,149.409 113.516 M160.961 118.004 C 160.961 118.162,160.274 118.741,159.435 119.290 C 157.678 120.441,153.153 121.414,153.153 120.640 C 153.153 120.354,153.761 120.120,154.505 120.119 C 155.248 120.119,156.802 119.611,157.958 118.992 C 160.193 117.793,160.961 117.541,160.961 118.004 M236.090 122.551 C 237.198 123.145,241.992 121.215,242.548 119.953 C 242.662 119.695,243.270 120.496,243.900 121.731 C 245.270 124.419,245.264 124.371,244.191 123.959 C 243.721 123.779,242.767 123.936,242.071 124.309 C 241.374 124.682,239.934 125.124,238.871 125.292 C 233.058 126.209,232.594 126.214,232.264 125.351 C 231.995 124.651,232.433 124.540,234.522 124.775 C 236.583 125.007,237.648 124.747,239.728 123.500 C 241.166 122.638,242.104 121.931,241.813 121.928 C 241.521 121.924,240.379 122.480,239.275 123.163 C 236.691 124.760,234.401 123.838,233.207 120.721 L 232.403 118.619 233.676 120.280 C 234.376 121.193,235.462 122.215,236.090 122.551 M273.971 121.047 C 272.965 123.255,273.157 123.726,274.245 121.719 C 274.753 120.781,275.057 119.902,274.919 119.764 C 274.782 119.627,274.355 120.204,273.971 121.047 M163.146 122.430 C 161.925 123.780,158.241 124.948,155.486 124.859 C 153.552 124.796,153.580 124.769,156.065 124.280 C 157.502 123.997,159.664 123.251,160.870 122.622 C 163.741 121.124,164.377 121.071,163.146 122.430 M216.944 122.689 C 222.239 123.171,220.161 125.681,214.787 125.297 C 208.666 124.859,208.411 124.715,208.963 121.996 C 208.988 121.871,210.428 121.943,212.162 122.155 C 213.896 122.368,216.048 122.608,216.944 122.689 M200.000 123.149 C 200.000 123.861,201.910 123.685,202.469 122.923 C 202.671 122.647,203.005 122.864,203.213 123.404 C 203.453 124.031,203.351 124.239,202.932 123.980 C 202.488 123.706,202.405 124.037,202.678 125.000 C 202.905 125.801,202.864 126.118,202.586 125.724 C 202.314 125.337,201.689 124.932,201.198 124.823 C 200.707 124.714,199.952 124.219,199.521 123.724 C 198.852 122.956,198.790 123.045,199.097 124.324 C 199.403 125.602,199.357 125.667,198.791 124.762 C 198.424 124.177,197.803 123.859,197.411 124.056 C 197.018 124.253,197.221 123.988,197.863 123.468 C 199.212 122.374,200.000 122.256,200.000 123.149 M245.024 126.087 C 246.081 128.062,245.701 128.924,244.545 127.172 C 243.945 126.261,243.227 125.721,242.952 125.971 C 242.676 126.222,242.644 126.089,242.882 125.676 C 243.504 124.596,244.309 124.750,245.024 126.087 M155.463 126.568 C 150.686 126.871,148.689 128.709,149.235 132.300 C 149.516 134.147,149.450 134.590,148.994 133.934 C 146.233 129.966,149.167 126.082,154.805 126.240 L 158.859 126.353 155.463 126.568 M244.261 128.778 C 245.188 129.575,245.756 130.418,245.524 130.651 C 245.292 130.884,244.665 130.636,244.130 130.102 C 243.595 129.567,242.906 129.095,242.600 129.054 C 242.293 129.013,241.772 128.911,241.441 128.829 C 241.111 128.746,240.419 128.645,239.904 128.604 C 239.390 128.562,239.135 128.258,239.339 127.928 C 240.002 126.855,242.535 127.292,244.261 128.778 M158.590 131.862 C 158.299 132.836,158.038 133.183,158.010 132.632 C 157.952 131.513,158.593 129.564,158.913 129.884 C 159.027 129.998,158.881 130.888,158.590 131.862 M236.939 132.736 C 237.142 133.065,236.896 133.333,236.393 133.333 C 235.890 133.333,235.177 132.772,234.811 132.087 C 234.095 130.749,236.087 131.357,236.939 132.736 M239.660 132.171 C 241.212 135.071,240.521 139.336,238.258 140.816 C 235.851 142.390,232.086 143.784,232.905 142.797 C 233.300 142.321,233.460 141.769,233.261 141.570 C 233.062 141.371,233.609 140.550,234.477 139.746 C 235.570 138.733,235.932 137.939,235.656 137.160 C 235.327 136.229,235.400 136.168,236.083 136.802 C 236.757 137.428,236.768 137.790,236.144 138.790 C 235.439 139.918,235.476 139.960,236.626 139.345 C 237.311 138.978,237.709 138.415,237.510 138.093 C 237.311 137.771,237.506 137.582,237.943 137.673 C 238.544 137.797,238.701 136.993,238.583 134.384 C 238.415 130.664,238.624 130.235,239.660 132.171 M254.204 132.423 C 256.263 134.235,256.283 134.059,253.702 136.916 L 251.547 139.300 253.251 140.879 L 254.954 142.457 253.153 143.898 C 252.162 144.691,251.149 145.341,250.901 145.342 C 250.085 145.348,250.431 144.215,251.413 143.665 C 252.566 143.020,252.306 140.923,251.044 140.688 C 250.552 140.597,249.069 141.502,247.748 142.700 C 244.456 145.685,241.043 147.915,240.199 147.634 C 239.814 147.506,240.602 146.670,241.951 145.777 C 243.299 144.885,246.618 141.986,249.326 139.337 L 254.248 134.519 252.950 133.136 C 250.602 130.637,251.557 130.093,254.204 132.423 M246.187 134.171 C 248.107 136.215,246.899 136.424,244.819 134.408 C 243.715 133.337,243.407 132.733,243.964 132.733 C 244.443 132.733,245.444 133.380,246.187 134.171 M242.485 140.955 C 241.927 141.514,241.269 141.769,241.023 141.523 C 240.777 141.277,240.973 140.824,241.459 140.517 C 242.921 139.592,243.571 139.870,242.485 140.955 M228.792 150.450 C 228.802 150.781,228.548 150.646,228.228 150.150 C 227.566 149.125,227.447 149.580,228.000 151.023 C 228.340 151.908,228.502 151.911,229.802 151.059 C 230.588 150.544,231.231 150.366,231.231 150.664 C 231.231 150.962,230.420 151.541,229.429 151.952 C 228.438 152.362,227.628 152.945,227.628 153.247 C 227.628 153.549,228.236 153.485,228.979 153.104 C 230.261 152.448,230.278 152.467,229.313 153.478 C 228.405 154.429,228.389 154.725,229.161 156.217 C 229.706 157.272,229.805 158.026,229.429 158.258 C 229.058 158.488,229.203 159.342,229.813 160.522 C 230.799 162.428,229.864 167.394,228.067 169.794 C 227.768 170.192,227.681 170.772,227.873 171.082 C 228.064 171.392,227.822 171.799,227.334 171.986 C 226.809 172.188,226.581 172.766,226.775 173.401 C 226.956 173.991,226.660 173.707,226.117 172.770 C 225.095 171.003,225.426 169.629,226.498 171.189 C 226.952 171.848,227.003 171.711,226.702 170.646 C 226.449 169.753,226.523 169.358,226.900 169.591 C 227.530 169.981,228.488 168.227,227.942 167.682 C 227.769 167.509,227.628 167.683,227.628 168.068 C 227.628 168.453,227.341 168.769,226.992 168.769 C 226.642 168.769,226.523 168.498,226.727 168.167 C 226.932 167.836,226.104 168.153,224.888 168.870 L 222.677 170.175 223.028 168.721 C 223.320 167.509,223.263 167.542,222.686 168.915 C 222.305 169.821,221.485 170.724,220.863 170.921 C 220.228 171.123,219.870 171.637,220.046 172.096 C 220.224 172.560,219.855 173.072,219.189 173.283 C 218.545 173.487,218.018 173.922,218.018 174.249 C 218.018 174.575,218.804 174.379,219.764 173.811 C 220.864 173.162,221.404 172.427,221.224 171.825 C 221.067 171.300,221.353 171.547,221.859 172.372 C 222.366 173.198,222.786 174.144,222.792 174.474 C 222.799 174.805,222.575 174.713,222.294 174.271 C 221.881 173.618,221.333 173.696,219.388 174.689 C 217.514 175.645,216.823 175.754,216.215 175.193 C 215.596 174.619,215.519 174.700,215.834 175.592 C 216.121 176.403,215.997 176.621,215.381 176.385 C 214.829 176.173,214.591 176.411,214.699 177.069 C 214.790 177.624,214.467 178.534,213.980 179.091 C 213.494 179.649,213.281 180.459,213.507 180.893 C 213.733 181.327,213.360 181.006,212.678 180.180 C 211.996 179.354,211.432 178.476,211.425 178.228 C 211.401 177.418,212.520 177.756,212.719 178.620 C 212.885 179.342,213.023 179.342,213.687 178.620 C 214.322 177.930,214.311 177.778,213.629 177.778 C 213.171 177.778,212.476 177.170,212.085 176.426 C 211.694 175.683,211.506 175.539,211.667 176.107 C 212.049 177.454,211.051 178.068,210.559 176.787 C 210.129 175.666,210.053 175.777,211.938 174.794 C 213.096 174.191,213.476 174.204,213.947 174.863 C 214.385 175.475,214.442 175.411,214.181 174.602 C 213.973 173.959,214.185 173.393,214.709 173.192 C 215.469 172.901,215.463 172.735,214.671 171.942 C 214.168 171.440,213.919 170.865,214.118 170.667 C 214.317 170.468,214.731 170.703,215.038 171.189 C 215.346 171.674,215.601 171.794,215.606 171.455 C 215.611 171.116,215.187 170.226,214.663 169.477 C 213.966 168.483,213.884 167.906,214.357 167.336 C 214.713 166.907,214.806 166.358,214.564 166.116 C 214.322 165.874,214.574 165.424,215.123 165.117 C 215.673 164.809,216.300 163.748,216.517 162.759 C 216.735 161.770,217.168 160.961,217.480 160.961 C 218.028 160.961,219.157 158.662,218.997 157.871 C 218.954 157.658,219.351 156.982,219.879 156.369 C 220.924 155.156,221.868 153.118,221.717 152.402 C 221.665 152.155,221.921 151.952,222.286 151.952 C 222.652 151.952,222.790 151.533,222.594 151.020 C 222.389 150.485,222.489 150.244,222.830 150.455 C 223.156 150.657,223.423 150.519,223.423 150.150 C 223.423 149.781,223.691 149.644,224.017 149.846 C 224.357 150.056,224.459 149.816,224.255 149.284 C 224.059 148.773,223.589 148.541,223.210 148.767 C 222.772 149.030,222.792 148.846,223.268 148.258 C 223.678 147.752,223.821 147.145,223.587 146.910 C 223.352 146.675,223.669 146.678,224.291 146.917 C 225.150 147.247,225.316 147.146,224.979 146.498 C 224.735 146.029,224.923 146.119,225.397 146.697 C 226.552 148.105,227.223 148.035,226.448 146.586 C 226.106 145.947,225.838 145.204,225.853 144.934 C 225.889 144.279,228.770 149.684,228.792 150.450 M234.817 146.570 C 233.393 147.471,232.624 147.191,233.890 146.233 C 234.527 145.752,235.194 145.505,235.374 145.685 C 235.554 145.864,235.303 146.263,234.817 146.570 M233.909 149.752 C 235.514 152.493,235.725 153.156,234.985 153.149 C 234.449 153.143,231.832 148.686,231.832 147.779 C 231.832 146.616,232.371 147.128,233.909 149.752 M242.643 151.247 C 242.643 152.221,239.720 154.475,239.018 154.041 C 238.534 153.742,238.855 153.155,240.025 152.198 C 241.834 150.718,242.643 150.425,242.643 151.247 M230.686 154.320 C 230.241 154.595,230.062 155.121,230.289 155.488 C 230.516 155.856,230.438 156.156,230.116 156.156 C 229.084 156.156,228.991 154.679,229.976 153.953 C 230.500 153.567,231.057 153.379,231.213 153.535 C 231.369 153.691,231.132 154.044,230.686 154.320 M239.944 157.951 C 240.424 157.174,241.441 157.186,241.441 157.969 C 241.441 158.305,239.347 159.562,236.787 160.761 C 234.227 161.961,231.929 163.053,231.682 163.188 C 231.434 163.323,231.231 163.042,231.231 162.563 C 231.231 162.084,231.935 161.515,232.795 161.299 C 235.472 160.628,237.356 159.079,237.027 157.821 C 236.748 156.751,236.819 156.738,238.153 157.612 C 239.029 158.186,239.718 158.317,239.944 157.951 M224.900 166.018 C 225.107 166.671,224.931 167.384,224.495 167.661 C 223.946 168.009,223.930 168.152,224.439 168.159 C 225.572 168.174,225.952 167.072,225.212 165.921 C 224.589 164.950,224.564 164.958,224.900 166.018 M225.453 169.873 C 224.186 170.932,224.185 170.951,225.317 173.157 C 225.943 174.377,226.319 175.375,226.153 175.375 C 225.778 175.375,223.266 170.513,223.532 170.301 C 224.024 169.907,226.159 168.805,226.426 168.807 C 226.592 168.808,226.153 169.288,225.453 169.873 M223.981 173.874 C 223.981 174.204,223.595 173.799,223.123 172.973 C 222.651 172.147,222.265 171.201,222.265 170.871 C 222.265 170.541,222.651 170.946,223.123 171.772 C 223.595 172.598,223.981 173.544,223.981 173.874 M211.284 180.631 C 210.943 181.044,210.359 181.377,209.987 181.372 C 209.582 181.367,209.635 181.157,210.117 180.851 C 210.782 180.430,210.747 179.982,209.918 178.308 L 208.911 176.276 210.407 178.078 C 211.486 179.376,211.731 180.090,211.284 180.631 M235.698 185.736 C 236.038 186.924,235.092 187.194,234.646 186.036 C 234.487 185.623,234.387 185.900,234.424 186.651 C 234.471 187.586,234.768 187.912,235.366 187.682 C 235.847 187.498,236.421 187.639,236.642 187.996 C 236.909 188.429,237.304 188.331,237.826 187.702 C 238.480 186.914,238.464 186.815,237.725 187.098 C 237.188 187.304,236.560 186.898,236.120 186.061 C 235.723 185.304,235.533 185.158,235.698 185.736 M226.386 190.006 C 226.363 190.383,226.052 190.083,225.693 189.339 C 225.335 188.596,224.813 187.988,224.533 187.988 C 224.253 187.988,224.033 187.650,224.044 187.237 C 224.055 186.824,224.596 187.125,225.245 187.904 C 225.895 188.684,226.408 189.630,226.386 190.006 " stroke="none" fill="#000000" fill-rule="evenodd"></path></g></svg>